<svg xmlns="http://www.w3.org/2000/svg" viewBox="0 0 750 500"><g id="freepik--background-complete--inject-134"><path d="M67.91,66.58,81,66.3l6.66-.11c2.23,0,4.47,0,6.7,0h.44v.45l.06,11.19v.5h-.5l-13.24-.06c-4.41,0-8.83-.11-13.24-.16h-.28v-.27c0-1.9.08-3.78.13-5.65Zm0,0,.14,5.66c0,1.86.11,3.7.13,5.53l-.27-.27c4.41,0,8.83-.16,13.24-.16l13.24-.07-.5.5,0-11.19.45.45C92.21,67,90,67,87.84,67l-6.58-.11Z" style="fill:#ebebeb"></path><path d="M82.68,52.47l13.13-.28,6.66-.11c2.22,0,4.46,0,6.69,0h.44v.45l0,11.19v.5h-.5L95.92,64.1c-4.41,0-8.83-.11-13.24-.16H82.4v-.27c0-1.9.08-3.78.13-5.65Zm0,0,.14,5.66c.05,1.86.11,3.7.13,5.53l-.27-.27c4.41,0,8.83-.16,13.24-.16l13.24-.07-.5.5.06-11.19.44.45c-2.18,0-4.36,0-6.54-.06L96,52.75Z" style="fill:#ebebeb"></path><path d="M457.15,180l13.12-.28,6.66-.11c2.23-.05,4.46,0,6.7-.05h.44V180l.06,11.19v.5h-.5l-13.24-.06c-4.42,0-8.83-.11-13.24-.17h-.28v-.27c0-1.9.09-3.79.13-5.65Zm0,0,.14,5.66c0,1.86.11,3.7.13,5.53l-.27-.27c4.41-.05,8.82-.16,13.24-.17l13.24-.06-.5.5.05-11.19.45.45c-2.19,0-4.36,0-6.55-.06l-6.58-.11Z" style="fill:#ebebeb"></path><path d="M471.92,165.9l13.12-.28,6.66-.11c2.23,0,4.47,0,6.7,0h.44v.45l.06,11.19v.5h-.5l-13.24-.06c-4.42,0-8.83-.11-13.24-.17h-.28v-.27c0-1.9.09-3.79.14-5.65Zm0,0,.14,5.66c0,1.86.11,3.7.13,5.53l-.27-.27c4.41,0,8.82-.16,13.24-.17l13.24-.06-.5.5L498,165.9l.45.45c-2.18,0-4.36,0-6.55-.06l-6.58-.11Z" style="fill:#ebebeb"></path><path d="M53.14,52.47l13.12-.28,6.66-.11c2.23,0,4.47,0,6.7,0h.44v.45l.06,11.19v.5h-.5L66.38,64.1c-4.42,0-8.83-.11-13.24-.16h-.28v-.27c0-1.9.09-3.78.13-5.65Zm0,0,.14,5.66c0,1.86.11,3.7.13,5.53l-.27-.27c4.41,0,8.82-.16,13.24-.16l13.24-.07-.5.5,0-11.19.45.45c-2.18,0-4.36,0-6.55-.06l-6.58-.11Z" style="fill:#ebebeb"></path><path d="M286.77,129.57l-13.13.28L267,130c-2.22,0-4.46,0-6.69,0h-.44v-.45l0-11.19v-.5h.5l13.24.06c4.41,0,8.83.11,13.24.16H287v.27c0,1.9-.08,3.78-.13,5.65Zm0,0-.14-5.66c-.05-1.86-.11-3.7-.13-5.53l.27.27c-4.41,0-8.83.16-13.24.16l-13.24.07.5-.5-.06,11.19-.44-.45c2.18,0,4.36,0,6.54.06l6.58.11Z" style="fill:#ebebeb"></path><path d="M682.09,248.5l-13.12.27-6.66.12c-2.23,0-4.47,0-6.7.05h-.44v-.44l-.06-11.19v-.51h.5l13.24.06c4.41,0,8.83.11,13.24.16h.28v.27c0,1.89-.08,3.78-.13,5.65Zm0,0-.14-5.66c-.05-1.86-.11-3.7-.13-5.53l.27.27c-4.41,0-8.83.16-13.24.16l-13.24.07.5-.5-.05,11.19-.45-.45c2.18,0,4.36,0,6.55,0l6.58.12Z" style="fill:#ebebeb"></path><path d="M696.86,262.61l-13.12.27-6.66.12c-2.23,0-4.47,0-6.7.05h-.44v-.44l-.06-11.19v-.51h.5l13.24.06c4.42,0,8.83.11,13.24.16h.28v.27c0,1.89-.09,3.78-.13,5.65Zm0,0-.14-5.66c0-1.86-.11-3.7-.13-5.53l.27.27c-4.41.05-8.82.16-13.24.16l-13.24.06.5-.49,0,11.19-.45-.45c2.18,0,4.36,0,6.55,0l6.58.12Z" style="fill:#ebebeb"></path><path d="M94.62,262.61l-13.13.27-6.66.12c-2.23,0-4.46,0-6.69.05h-.45v-.44l0-11.19v-.51h.51l13.24.06c4.41,0,8.82.11,13.24.16h.27v.27c0,1.89-.09,3.78-.13,5.65Zm0,0L94.47,257c0-1.86-.11-3.7-.13-5.53l.28.27c-4.42.05-8.83.16-13.24.16l-13.24.06.49-.49,0,11.19-.44-.45c2.18,0,4.35,0,6.54,0l6.58.12Z" style="fill:#ebebeb"></path><path d="M655.5,52.47l13.12-.28,6.66-.11c2.23,0,4.47,0,6.7,0h.44v.45l.06,11.19v.5H682l-13.24-.06c-4.42,0-8.83-.11-13.24-.16h-.28v-.27c0-1.9.09-3.78.14-5.65Zm0,0,.14,5.66c0,1.86.11,3.7.13,5.53l-.27-.27c4.41,0,8.82-.16,13.24-.16L682,63.16l-.5.5,0-11.19.45.45c-2.18,0-4.36,0-6.55-.06l-6.58-.11Z" style="fill:#ebebeb"></path><rect x="525.07" y="49.73" width="42.65" height="42.65" transform="translate(617.45 -475.35) rotate(90)" style="fill:#dbdbdb"></rect><rect x="531.69" y="56.34" width="29.42" height="29.42" transform="translate(617.45 -475.35) rotate(90)" style="fill:#fff"></rect><polygon points="561.11 56.34 531.68 56.34 531.68 85.76 561.11 56.34" style="fill:#ebebeb"></polygon><rect x="520.9" y="49.73" width="4.17" height="42.65" transform="translate(1045.98 142.1) rotate(180)" style="fill:#c7c7c7"></rect><rect x="577.87" y="49.73" width="42.65" height="42.65" transform="translate(670.25 -528.14) rotate(90)" style="fill:#dbdbdb"></rect><rect x="584.48" y="56.34" width="29.42" height="29.42" transform="translate(670.25 -528.14) rotate(90)" style="fill:#fff"></rect><polygon points="605.27 56.34 584.48 56.34 584.48 77.13 605.27 56.34" style="fill:#ebebeb"></polygon><rect x="573.7" y="49.73" width="4.17" height="42.65" transform="translate(1151.57 142.1) rotate(180)" style="fill:#c7c7c7"></rect><rect x="551.44" y="76.22" width="42.72" height="95.45" transform="translate(696.74 -448.85) rotate(90)" style="fill:#dbdbdb"></rect><rect x="556.72" y="83.19" width="32.15" height="81.51" transform="translate(696.74 -448.85) rotate(90)" style="fill:#fff"></rect><polygon points="585.48 107.87 532.04 107.87 532.04 128.95 585.48 107.87" style="fill:#ebebeb"></polygon><rect x="520.9" y="102.59" width="4.17" height="42.72" transform="translate(1045.98 247.89) rotate(180)" style="fill:#c7c7c7"></rect><rect x="412.25" y="49.73" width="95.45" height="95.45" transform="translate(557.42 -362.52) rotate(90)" style="fill:#dbdbdb"></rect><rect x="419.21" y="56.69" width="81.52" height="81.51" style="fill:#fff"></rect><path d="M419.21,115.38C431.6,103.06,466.72,68.12,478,56.69H419.21Z" style="fill:#ebebeb"></path><rect x="408.08" y="49.73" width="4.17" height="95.45" transform="translate(820.33 194.9) rotate(180)" style="fill:#c7c7c7"></rect><polygon points="60.17 265.7 309.66 265.7 314.85 163.33 54.98 163.33 60.17 265.7" style="fill:#ebebeb"></polygon><path d="M297.84,210.19H193.53l-2-35.54H300.12Zm-103.12-1.26H296.65l2.13-33H192.91Z" style="fill:#dbdbdb"></path><path d="M295.91,251.08H197.62L196,219h101.9Zm-97.1-1.26h95.92l1.85-29.56H197.34Z" style="fill:#dbdbdb"></path><path d="M255.73,196.27H238.2l-1.11-8.57h19.74ZM239.31,195h15.31l.78-6H238.53Z" style="fill:#dbdbdb"></path><path d="M255.73,239.32H238.2l-1.11-8.57h19.74Zm-16.42-1.26h15.31l.78-6.05H238.53Z" style="fill:#dbdbdb"></path><path d="M175.15,210.19H70.84l-2-35.54H177.43ZM72,208.93H174l2.12-33H70.21Z" style="fill:#dbdbdb"></path><path d="M173.22,251.08H74.93L73.33,219h101.9Zm-97.1-1.26H172l1.85-29.56H74.65Z" style="fill:#dbdbdb"></path><path d="M133,196.27H115.51l-1.11-8.57h19.74ZM116.62,195h15.31l.78-6H115.84Z" style="fill:#dbdbdb"></path><path d="M133,239.32H115.51l-1.11-8.57h19.74Zm-16.42-1.26h15.31l.78-6.05H115.84Z" style="fill:#dbdbdb"></path><polygon points="82.54 265.7 80.98 276.85 77.83 299.26 71.66 299.26 71.66 265.7 82.54 265.7" style="fill:#ebebeb"></polygon><polygon points="82.54 265.7 80.98 276.85 71.66 276.85 71.66 265.7 82.54 265.7" style="fill:#dbdbdb"></polygon><polygon points="287.29 265.7 288.85 276.85 292 299.26 298.17 299.26 298.17 265.7 287.29 265.7" style="fill:#ebebeb"></polygon><polygon points="287.29 265.7 288.85 276.85 298.17 276.85 298.17 265.7 287.29 265.7" style="fill:#dbdbdb"></polygon></g><g id="freepik--Shadows--inject-134"><ellipse cx="375" cy="431.46" rx="290.34" ry="24.46" style="fill:#ebebeb"></ellipse><ellipse cx="375" cy="342.92" rx="181.82" ry="24.46" style="fill:#ebebeb"></ellipse></g><g id="freepik--Floor--inject-134"><polygon points="52 299.26 132.75 299.02 213.5 298.93 375 298.76 536.5 298.93 617.25 299.02 698 299.26 617.25 299.51 536.5 299.59 375 299.76 213.5 299.59 132.75 299.5 52 299.26" style="fill:#263238"></polygon></g><g id="freepik--Plant--inject-134"><path d="M652.38,226.64s19.83-4.5,30.7-14.51S700,184.18,700,184.18A170.83,170.83,0,0,0,677.78,190c-1.77,1.9-5.15,5.81-6.73,9.51a46,46,0,0,1,0-6.8,30.1,30.1,0,0,0-7.06,4.29C654.93,204.9,652.38,226.64,652.38,226.64Z" style="fill:#1C5D65"></path><path d="M687.63,192.9c2.71-1.87,5.46-3.68,8.15-5.56.16-.12,0-.37-.16-.27-5.11,3.05-10.15,6.32-15,9.73-1.7,1.19-3.37,2.43-5,3.69l.35-.58c.59-1,1.22-2,1.85-2.95a42.58,42.58,0,0,1,4.2-5.62c.06-.06,0-.16-.09-.09-1.54,1.78-3.09,3.54-4.5,5.43-.67.9-1.29,1.83-1.88,2.78-.31.49-.61,1-.89,1.49l-.3.52c-2.56,2-5.06,4.11-7.44,6.33q-2.21,2.05-4.26,4.25c.77-2.4,1.44-4.82,2.33-7.19,0-.08-.11-.11-.13,0-.87,2.48-1.81,5-2.48,7.51-1.52,1.64-3,3.35-4.34,5.11,0-.1,0-.21.07-.32.23-.93.46-1.86.71-2.79.48-1.8,1-3.58,1.62-5.34A31,31,0,0,1,665.72,199c.06-.07,0-.16-.1-.1A38.72,38.72,0,0,0,658,214.71c-.21.84-.41,1.69-.6,2.54-.11.45-.23.91-.3,1.37-.6.81-1.19,1.63-1.75,2.47A85.82,85.82,0,0,0,647,237.54a187.7,187.7,0,0,0-6.35,19.8c0,.14.16.18.2.05,3.88-11.6,7.84-23.36,14.47-33.73,1.4-2.19,2.92-4.3,4.53-6.34a37.32,37.32,0,0,0,9.64-1.92,42.62,42.62,0,0,0,9.66-4.66,60.26,60.26,0,0,0,5-3.75c.07-.06,0-.16-.09-.1a39.49,39.49,0,0,1-9.09,5.5,48.79,48.79,0,0,1-10,3.35c-1.46.32-2.94.56-4.43.76a83.42,83.42,0,0,1,5.85-6.48c.66-.66,1.36-1.3,2-2a46.65,46.65,0,0,1,7.33-4.2c3.24-1.57,6.44-3.23,9.66-4.87,1.81-.92,3.61-1.86,5.44-2.76.08,0,0-.15-.07-.11-3.26,1.57-6.57,3-9.86,4.55-3.09,1.42-6.22,2.84-9.2,4.51l-.37.22q4-3.49,8.31-6.71Q683.58,195.72,687.63,192.9Z" style="fill:#263238"></path><path d="M686.51,203.12c-1.62.71-3.26,1.33-4.85,2.08s-3.2,1.66-4.76,2.59c-.07,0,0,.13.07.1,1.58-.76,3.18-1.46,4.74-2.25s3.19-1.67,4.84-2.39C686.62,203.21,686.59,203.08,686.51,203.12Z" style="fill:#263238"></path><path d="M588,126.72a28.35,28.35,0,0,1,5.93,16.47c.06,1.78-.22,4.25-.43,7.17,7.4,3.95,12.94,11.06,12.94,11.06-4.2-2.53-10-3.55-13.07-3.13a39.13,39.13,0,0,0,.75,5.92c1.38-.08,4,.11,8.41,1.66a19,19,0,0,0-7.58,1.51c3.53,11.24,14,22.8,43.05,27.7a60.9,60.9,0,0,0-5.14-40.82C624.15,137.16,588,126.72,588,126.72Z" style="fill:#1C5D65"></path><path d="M648,243.19q-.76-7.2-1.88-14.37a289.27,289.27,0,0,0-5.85-28.39,112.88,112.88,0,0,0-4.19-12.94,20,20,0,0,0,.11-2.32c0-.93,0-1.86,0-2.79,0-1.86-.1-3.71-.26-5.56a66.72,66.72,0,0,0-1.78-10.88c-.54-2.07-1.15-4.1-1.76-6.15,0-.08-.15,0-.13,0a78.68,78.68,0,0,1,2.14,10.86,99,99,0,0,1,1,10.89c0,1,.05,2,.05,3,0,.42,0,.85,0,1.28a94.12,94.12,0,0,0-4.89-10.12,121.92,121.92,0,0,0-9.93-14.85,6,6,0,0,0-.23-1.63c-.14-.64-.28-1.29-.43-1.94-.29-1.32-.63-2.64-1-3.95-.73-2.63-1.68-5.17-2.5-7.76a.07.07,0,1,0-.13,0c.77,2.57,1.28,5.23,1.86,7.84.3,1.3.58,2.59.86,3.89.15.64.28,1.29.42,1.94,0,.05,0,.1,0,.14-1.17-1.47-2.36-2.93-3.59-4.37-5.54-6.5-11.61-12.49-17.72-18.44-.76-.73-1.53-1.44-2.29-2.16-.06-.06-.15,0-.09.1,5.84,6.09,11.59,12.25,17,18.71,1.29,1.53,2.57,3.08,3.82,4.65l-2-1.31c-1.68-1.1-3.39-2.18-5.15-3.16s-3.54-1.95-5.35-2.85-3.85-1.67-5.64-2.72c-.08,0-.14.09-.07.12a43.45,43.45,0,0,1,5.3,2.93c1.76,1.05,3.53,2.11,5.26,3.21s3.42,2.14,5.11,3.24c1.41.92,2.8,1.92,4.26,2.77a135.54,135.54,0,0,1,9.3,13.52,100.32,100.32,0,0,1,4.8,9.11c-.35-.15-.7-.29-1-.45l-2.65-1.18-5.14-2.24c-3.25-1.41-6.55-2.71-9.74-4.26a43.47,43.47,0,0,1-5.21-2.9c-.07,0-.14.07-.07.12,6,4.1,12.62,7,19.2,9.9l2.86,1.27c.78.34,1.57.73,2.37,1A99.85,99.85,0,0,1,638,197.54a274.11,274.11,0,0,1,6.31,28.06c1.66,9.48,2.79,19,3.66,28.59.11,1.2.22,2.39.35,3.58a.38.38,0,0,0,.76,0C649,252.89,648.52,248,648,243.19Z" style="fill:#263238"></path><path d="M630.37,163.08c-.53-3-1.32-5.83-2.11-8.72,0-.08-.15,0-.13,0,.73,2.83,1.26,5.72,1.79,8.6s1,5.88,1.44,8.83a0,0,0,0,0,.08,0A78,78,0,0,0,630.37,163.08Z" style="fill:#263238"></path><path d="M617.87,171.08a52,52,0,0,0-6.31-3.55c-1.06-.55-2.13-1.07-3.2-1.59s-2.25-1-3.35-1.53c-.07,0-.14.08-.06.12,1.06.53,2.07,1.18,3.11,1.75s2.14,1.18,3.22,1.76c2.12,1.14,4.21,2.4,6.43,3.32A.16.16,0,0,0,617.87,171.08Z" style="fill:#263238"></path><path d="M652.74,192.29s18.35-4.38,26.77-16.69c8-11.75,10.65-31.78,10.85-33.55-.33,1.62-4.11,19.13-16.6,27.29C664.2,175.59,655,180.72,652.74,192.29Z" style="fill:#263238;opacity:0.1"></path><path d="M669.68,160.6a23.42,23.42,0,0,0-6.77,11.14s.05,0,.06,0a27.29,27.29,0,0,1,6.8-11.06C669.83,160.64,669.74,160.54,669.68,160.6Z" style="fill:#263238"></path><path d="M652.74,192.29s18.35-4.38,26.77-16.69c8-11.75,10.65-31.78,10.85-33.55l0-.12s-8.8,12.51-18,15.7S650.09,171.85,652.74,192.29Z" style="fill:#1C5D65"></path><path d="M687.13,148.83a74,74,0,0,1-5.67,9.7,39,39,0,0,1-7.54,7.76c-2.5,2-5.13,3.77-7.65,5.72,0,0,0-.07.05-.1.48-.7,1-1.38,1.51-2,1-1.34,2.19-2.61,3.35-3.86,2.28-2.47,4.61-4.9,6.65-7.58a27.55,27.55,0,0,0,2.94-4.74c0-.07-.09-.12-.13,0-3,6.2-8.91,10.17-13.16,15.4-.6.75-1.17,1.52-1.69,2.32a9.51,9.51,0,0,0-1.06,1.87,39,39,0,0,0-6.26,6.32,26.77,26.77,0,0,1,.74-3.56,17.71,17.71,0,0,1,1.95-4.64c0-.08-.07-.15-.12-.08a22,22,0,0,0-2.14,4.62,16.32,16.32,0,0,0-.66,4h0a35.64,35.64,0,0,0-2.48,3.86c.07-.4.15-.79.23-1.18.36-1.83.76-3.65,1.24-5.45a32.68,32.68,0,0,1,4.41-10.34.07.07,0,1,0-.11-.07,38.73,38.73,0,0,0-4.89,10.11c-.59,1.8-1.06,3.63-1.47,5.48-.2.9-.38,1.8-.55,2.71-.09.47-.19,1-.27,1.44a66.25,66.25,0,0,0-4.23,12.43,182.09,182.09,0,0,0-3.91,23.2,193,193,0,0,0-1.27,24.63c0,1,.08,2.06.14,3.09,0,.27.41.31.42,0,.18-4.07.29-8.15.53-12.22s.59-8.13,1-12.18a215.72,215.72,0,0,1,3.82-23.72c1.49-6.71,3.42-13.46,7.08-19.34a36.7,36.7,0,0,1,6.62-7.87c2.57-2.31,5.39-4.33,8.1-6.47a44.45,44.45,0,0,0,7.43-7.14,58.18,58.18,0,0,0,5.83-9.47c.43-.83.88-1.66,1.32-2.49C687.29,148.83,687.17,148.75,687.13,148.83Z" style="fill:#263238"></path><path d="M684,151.52a62.51,62.51,0,0,1-4.09,7.15c0,.05,0,.1.08.05a49.9,49.9,0,0,0,4.14-7.16C684.13,151.48,684,151.44,684,151.52Z" style="fill:#263238"></path><path d="M585.42,184.18s-.29,26.07,15.3,33.6,23.95,1.25,34.54,3.78l0,0c-.41-.62-8-11.49-20-14.48C602.88,204,589.17,195,585.42,184.18Z" style="fill:#1C5D65"></path><path d="M585.42,184.18s-.29,26.07,15.3,33.6,23.95,1.25,34.54,3.78l0,0a59.19,59.19,0,0,0-17.72-5.23C607.69,215.13,588.91,208.72,585.42,184.18Z" style="opacity:0.1"></path><path d="M636.28,222a26.06,26.06,0,0,0-6.2-4.2c-.33-.16-.67-.29-1-.43a7.57,7.57,0,0,0-.53-.6,19.31,19.31,0,0,0-1.46-1.4,22.51,22.51,0,0,0-3.14-2.26c-2.58-1.52-5.41-2.58-8.05-4-.08,0-.15.08-.07.12,1.31.68,2.57,1.42,3.84,2.17s2.5,1.4,3.7,2.18a27.91,27.91,0,0,1,3.09,2.31c.27.24.53.5.8.77a41.74,41.74,0,0,0-5.27-1.4c-2.86-.58-5.74-1-8.59-1.59a39.52,39.52,0,0,1-4.14-1.12c-1.29-1-2.58-2.08-3.81-3.21a31.53,31.53,0,0,1-4-4.46c-.06-.07-.17,0-.12.07a47.94,47.94,0,0,0,6.39,7.05c-.67-.26-1.34-.53-2-.83a32.18,32.18,0,0,1-13.29-11c0-.07-.16,0-.11.07a36.35,36.35,0,0,0,10.75,10.32,32.2,32.2,0,0,0,6.79,3.21,63.77,63.77,0,0,0,8.43,2,59.41,59.41,0,0,1,8.26,2,24.86,24.86,0,0,1,6.93,3.65,32.18,32.18,0,0,1,9.34,11.58c3,5.92,4.37,12.53,5.15,19.06,0,.28.46.28.44,0C647.66,241,644.73,229.63,636.28,222Z" style="fill:#263238"></path><path d="M618.19,213.52a8.86,8.86,0,0,0-3.2-2.91,11.72,11.72,0,0,1-3.81-3.15c0-.07-.17,0-.12.07a12.9,12.9,0,0,0,3.37,3,11.85,11.85,0,0,1,3.67,3A.05.05,0,1,0,618.19,213.52Z" style="fill:#263238"></path><polygon points="626.47 241.26 627.17 255.6 629.35 299.4 662.05 299.4 664.23 255.6 664.93 241.26 626.47 241.26" style="fill:#455a64"></polygon><polygon points="626.47 241.26 627.17 255.6 664.23 255.6 664.93 241.26 626.47 241.26" style="fill:#263238"></polygon><rect x="624.17" y="235.28" width="43.05" height="13.68" transform="translate(1291.4 484.23) rotate(180)" style="fill:#455a64"></rect></g><g id="freepik--game-board--inject-134"><polygon points="443.77 444.86 225.54 444.86 264.36 398.42 403.71 398.4 443.77 444.86" style="fill:#1C5D65"></polygon><polygon points="230.32 439.13 298.7 398.42 264.36 398.42 230.32 439.13" style="opacity:0.1"></polygon><polygon points="225.54 444.86 432.09 431.31 443.77 444.86 225.54 444.86" style="opacity:0.1"></polygon><polygon points="426.36 424.66 310.52 398.42 403.71 398.4 426.36 424.66" style="opacity:0.1"></polygon><path d="M398.39,442.82c-11.3,0-26.72-.68-46.65-1.65-15.69-.76-31.71-1.56-42.4-1.56-8.9,0-18.2.62-27.28,1.22-12.92.84-26.46,1.71-38.43.82l7.54-5.3c8,.62,18.51-.09,29.55-.84,9.58-.66,19.39-1.34,29.66-1.34,11.51,0,27.49.83,43.16,1.63,18.28.93,43.77,2.19,50.31,1.26,3.81-.55,5.81-1.66,5.36-3-.18-.52-1.07-1.83-5.34-2.66-3.4-.68-16.3.53-23.35,1.19-11.46,1-23.53,2.12-33.14,1.32-9.22-.78-16.2-3.36-18.65-6.9-2.29-3.56.25-7.17,6.15-9.2,8.11-2.92,23.14-1.93,37.95-1,6.49.42,13.9.89,16.9.69,3.2-.21,5.11-1,5.65-2.33.73-2-1.81-4.56-6-6.29-3.23-1.37-9.57-2.34-17-2.6a126.08,126.08,0,0,0-24.66,1.58c-5.15.85-13.67,6.24-20.52,10.18-9.29,4.91-18,9.15-26.89,10.59-16.4,2.56-34.88,1.88-42.8-1.63-4-1.9-4.81-4.54-2.34-7.24s7.14-4.9,13.1-6.43c8.09-2.14,16.25-2,22.82-1.88,4.15.07,8.44.14,10.2-.41,2.35-.76,3.78-1.91,3.68-3-.07-.77-1-1.33-2.64-1.67-3.31-.26-18.33-.12-32.17,0-3.59,0-6.17-.85-5.76-1.77.5-1.13,6.05-3.33,9.94-3.45,20.79-.63,32.77-.05,33.87.16,5.47,1,9,3.17,9.57,5.86.71,2.91-2.57,6-8.8,8s-14.09,1.85-20.87,1.74c-5.38-.09-10.46-.17-13.94.73-2.27.58-4,1.46-4.75,2.48s-.44,2.27,1.28,3.07c4.12,1.86,15,2.11,24.48.58,4.8-.8,14.26-5.38,20.71-8.72,9.84-5.54,18.17-10.77,26.68-12.24,17-3.09,41.48-2.88,54.81,2.85,8.19,3.27,13.26,7.81,12.35,11.57-1,3.08-6.31,5.14-14.57,5.67-5.57.35-13.56-.14-22.73-.7-8.58-.53-24.33-1.52-27.59-.37-1.93.66-2.47,2.29-1.24,3.86,1,1.21,3.34,2.62,7,2.94,5.15.45,15.11-.48,23.76-1.31,13.17-1.28,25.33-2.5,35.27-.46,8.63,1.72,14.82,4.61,16.36,7.73,1.57,3.31-3.19,6.17-12.55,7.48A118.93,118.93,0,0,1,398.39,442.82Z" style="fill:#37474f"></path><path d="M293.18,400.94l-2.53,5.39-6.62,0h-.59l-3.67,0,3.17-5.38C286.77,401,290.19,400.93,293.18,400.94Z" style="fill:#455a64"></path><path d="M290.86,411.5,288.45,417h-.31a80.68,80.68,0,0,0-12,.35l3.17-5.62C283.41,411.38,287.35,411.44,290.86,411.5Z" style="fill:#455a64"></path><path d="M323.58,420.07c-2.64,1.38-5.25,2.67-7.84,3.82l-11.35-3.18c2.68-1.17,5.48-2.52,8.06-3.82Z" style="fill:#455a64"></path><path d="M336.72,412.75c-2.25,1.24-4.57,2.57-6.79,3.84L319,413.4c2.41-1.33,4.74-2.63,7-3.83Z" style="fill:#455a64"></path><path d="M400.68,431.22c-3.44,0-8.58.37-13.28.77l-5.19-5.37c4.39-.39,8.64-.7,12.65-.79Z" style="fill:#455a64"></path><path d="M389.14,437.3l1.11,5.42q-6.88-.14-15.31-.49l-.45-5.43C379.65,437,384.68,437.2,389.14,437.3Z" style="fill:#455a64"></path><path d="M361.16,436.19l-.93,5.39-8.48-.4-6.49-.32,1.55-5.4,6.73.34Z" style="fill:#455a64"></path><path d="M333.78,434.84l-2.14,5.39c-5.26-.23-10.27-.41-14.76-.52l2.79-5.4C324.08,434.43,328.83,434.61,333.78,434.84Z" style="fill:#455a64"></path><path d="M305.06,439.65c-4.92.1-9.94.36-14.95.66l.31-5.44c4.69-.29,9.45-.52,14.31-.63Z" style="fill:#455a64"></path><path d="M275.22,441.27c-5.09.31-10.22.57-15.28.69l.65-5.4c4.56-.07,9.51-.35,14.65-.68Z" style="fill:#455a64"></path><path d="M365.89,406.29c-3.36.06-6.76.25-10.07.57L353,401.47c3.25-.31,6.59-.5,9.94-.58Z" style="fill:#455a64"></path><path d="M362.38,416.24l-.79,5.38c-4.4-.21-8.83-.35-12.1-.26l.85-5.46C354.1,415.87,358.17,416,362.38,416.24Z" style="fill:#455a64"></path><path d="M375.09,433.1c-4.56.4-9.13.75-13.56.95l-3.77-5.37c3.92-.18,8.48-.56,12.92-1Z" style="fill:#455a64"></path><path d="M385.22,402.37l-.76,5.2a78.07,78.07,0,0,0-10.14-1.15l.37-5.29A103.65,103.65,0,0,1,385.22,402.37Z" style="fill:#455a64"></path><path d="M384.77,417.54l1,5.4c-3.89-.14-8.23-.4-12.88-.68l.66-5.34C377.41,417.16,381.49,417.42,384.77,417.54Z" style="fill:#455a64"></path><path d="M315.86,404.44l-10.94,3.43a1,1,0,0,0-.12-.23,1.57,1.57,0,0,0-.17-.21h0a1.55,1.55,0,0,0-.23-.19l-.28-.18h0l-.31-.15-.06,0-.37-.14h0l-.44-.12-.53-.13-.74,0-.52,0,3.81-5.26c1.9.08,3,.16,3.33.22l.72.15.5.11c.4.09.79.2,1.17.3l.52.16.45.15a16.51,16.51,0,0,1,2,.81l.39.2.39.21.07,0a3.79,3.79,0,0,1,.34.2l.4.25C315.44,404.12,315.66,404.28,315.86,404.44Z" style="fill:#455a64"></path><path d="M315.11,412.34a22,22,0,0,1-6.1,2.86,36.89,36.89,0,0,1-6.83,1.37l-3.53-5.09a12.52,12.52,0,0,0,2.67-.38,10,10,0,0,0,2.14-.94Z" style="fill:#455a64"></path><path d="M425.44,433.72l-16.39,0c-.36-.54-1.33-1.39-3.93-2.06l8.73-3.82C419.5,429.41,423.66,431.47,425.44,433.72Z" style="fill:#455a64"></path><path d="M422.58,439.81a35.44,35.44,0,0,1-9.12,2.29q-2.91.39-6.93.57l-4.63-5.43c.77,0,1.42-.1,1.94-.18a16.19,16.19,0,0,0,3.46-.82Z" style="fill:#455a64"></path><path d="M349.55,428.53l-4.75,5.13c-5.92-.75-10.73-2.28-13.71-4.33L345,426.92A11.62,11.62,0,0,0,349.55,428.53Z" style="fill:#455a64"></path><path d="M347.4,408a21.36,21.36,0,0,0-4.6,1.63l-10.24-3.39a39.18,39.18,0,0,1,10.05-3.38l.54-.1Z" style="fill:#455a64"></path><path d="M407.35,411.67l-13.07.39a13.55,13.55,0,0,0-3.82-2.63l8-3.31A29.78,29.78,0,0,1,407.35,411.67Z" style="fill:#455a64"></path><path d="M409.65,417.56h0c-.78,1.94-3.37,3.45-7.39,4.39l-10.66-4.6c2-.35,3.28-1,3.73-2Z" style="fill:#455a64"></path><path d="M344,422.32a2.06,2.06,0,0,0-1,1.94l-15-.69c.5-2.3,2.93-4.38,6.87-5.74l.36-.12Z" style="fill:#455a64"></path><path d="M269.14,420.69,254,421.75a5.89,5.89,0,0,1,1.23-1.93,19.16,19.16,0,0,1,6.58-4.21l9.85,3a5.83,5.83,0,0,0-2.18,1.58A2.14,2.14,0,0,0,269.14,420.69Z" style="fill:#455a64"></path><path d="M276.19,424.47,272.41,430c-6.17-.43-11.34-1.38-14.66-2.82l13.57-3.7A21.56,21.56,0,0,0,276.19,424.47Z" style="fill:#455a64"></path><path d="M305.69,427.52a51,51,0,0,1-5.34,1.17c-4,.63-8.16,1.07-12.29,1.31l1.22-5.48c2-.17,4-.41,5.93-.73h.06Z" style="fill:#455a64"></path><path d="M271.68,404.51a1.85,1.85,0,0,1-1.34.46c-.57,0-.89-.21-.71-.46a2,2,0,0,1,1.35-.45C271.54,404.06,271.85,404.27,271.68,404.51Z" style="fill:#263238"></path><path d="M390.11,412.72c1,1.74-1.74,3.15-6.2,3.15s-8.68-1.41-9.43-3.15,2-3.16,6.2-3.16S389.08,411,390.11,412.72Z" style="fill:#fff"></path><path d="M383,413.08l.19.37c.08.16-.16.28-.56.28s-.76-.12-.84-.28l-.3-.59h0c-.08-.15.18-.28.55-.28.89,0,1.46-.29,1.28-.64a2.48,2.48,0,0,0-1.93-.64,1.77,1.77,0,0,0-1.19.31,1.11,1.11,0,0,1-.9.1c-.36-.08-.55-.24-.42-.38a3.3,3.3,0,0,1,2.22-.59c1.61,0,3.22.53,3.58,1.2S384.27,413,383,413.08Zm.65,1.25.05.11c.08.16-.16.28-.56.28s-.77-.12-.85-.28l-.06-.11c-.07-.15.19-.28.57-.28A1.1,1.1,0,0,1,383.67,414.33Z" style="fill:#263238"></path><path d="M325.85,430c-.11,1.75-4.44,3.16-9.67,3.16s-9.15-1.41-8.76-3.16,4.72-3.15,9.67-3.15S326,428.23,325.85,430Z" style="fill:#fff"></path><path d="M317.21,430.34l0,.37c0,.16-.4.28-.87.28s-.81-.12-.78-.28l.09-.59h0s0,0,0,0,.43-.28.86-.28c1.05,0,1.94-.28,2-.64s-.76-.64-1.8-.64a3.63,3.63,0,0,0-1.63.32,2,2,0,0,1-1.15.1c-.36-.08-.47-.24-.21-.38a6.91,6.91,0,0,1,3.07-.6c1.91,0,3.4.54,3.33,1.2S318.78,430.21,317.21,430.34Zm-.17,1.25,0,.11c0,.16-.4.28-.87.28s-.82-.12-.79-.28v-.11c0-.15.44-.28.88-.28S317.06,431.44,317,431.59Z" style="fill:#263238"></path><path d="M289.38,420.74c-.73,1.74-5.22,3.15-10,3.15s-7.9-1.41-6.89-3.15,5.5-3.15,10-3.15S290.11,419,289.38,420.74Z" style="fill:#fff"></path><path d="M281.31,421.11l-.19.37c-.08.16-.46.28-.89.28s-.7-.12-.62-.28l.3-.6h0a1.24,1.24,0,0,1,.9-.28c1,0,1.88-.29,2.05-.64s-.46-.64-1.41-.64a3.93,3.93,0,0,0-1.62.31,1.83,1.83,0,0,1-1.09.11c-.3-.08-.34-.25-.05-.39a7.54,7.54,0,0,1,3-.59c1.74,0,2.92.54,2.61,1.2S282.8,421,281.31,421.11Zm-.62,1.25-.05.1c-.08.16-.47.28-.91.28s-.7-.12-.62-.28l.05-.1c.08-.16.5-.28.91-.28S280.77,422.2,280.69,422.36Z" style="fill:#263238"></path><polygon points="247.45 440.08 240 439.52 242.79 437.62 250.13 438.19 247.45 440.08" style="fill:#fff"></polygon><polygon points="251.2 437.42 246.36 440.85 253.56 439.5 251.2 437.42" style="fill:#fff"></polygon><circle cx="261.84" cy="403.35" r="2.73" style="fill:#1C5D65"></circle><rect x="258.77" y="406.09" width="6.14" height="1" style="fill:#1C5D65"></rect><rect x="256.37" y="416.97" width="10.92" height="1" style="fill:#1C5D65"></rect><polygon points="266.23 416.97 257.43 416.97 260.07 407.09 263.58 407.09 266.23 416.97" style="fill:#1C5D65"></polygon><g style="opacity:0.6000000000000001"><circle cx="261.84" cy="403.35" r="2.73" style="fill:#fff"></circle><rect x="258.77" y="406.09" width="6.14" height="1" style="fill:#fff"></rect><rect x="256.37" y="416.97" width="10.92" height="1" style="fill:#fff"></rect><polygon points="266.23 416.97 257.43 416.97 260.07 407.09 263.58 407.09 266.23 416.97" style="fill:#fff"></polygon></g><path d="M343.06,383.23a2.74,2.74,0,1,1-2.73-2.73A2.73,2.73,0,0,1,343.06,383.23Z" style="fill:#263238"></path><rect x="337.26" y="385.96" width="6.14" height="1" style="fill:#263238"></rect><rect x="334.86" y="396.85" width="10.92" height="1" style="fill:#263238"></rect><polygon points="344.72 396.85 335.92 396.85 338.56 386.96 342.07 386.96 344.72 396.85" style="fill:#263238"></polygon><path d="M385,422.78a2.73,2.73,0,1,1-2.73-2.73A2.73,2.73,0,0,1,385,422.78Z" style="fill:#fff"></path><rect x="379.15" y="425.51" width="6.14" height="1" style="fill:#fff"></rect><rect x="376.75" y="436.4" width="10.92" height="1" style="fill:#fff"></rect><polygon points="386.61 436.4 377.81 436.4 380.45 426.51 383.97 426.51 386.61 436.4" style="fill:#fff"></polygon></g><g id="freepik--character-2--inject-134"><path d="M475.41,356.54c-.69-3-46.22-76.8-49.65-78.46-.39-.22-25.25,14.13-25.25,14.13-1.08,1.19-44.44-12.37-44.44-12.37l-5.52,53.34,80.77,6s10.28,7.44,19.74,13.6c0,0,0,0,0,0,5.82,3.81,11,7.05,12.5,7.6C467.52,361.77,476.12,359.56,475.41,356.54Z" style="fill:#d3766a"></path><path d="M463.59,360.35c-1.51-.54-6.68-3.78-12.49-7.6h0c-9.46-6.17-19.74-13.61-19.74-13.61l-18-1.33-23.77-48c6.06,1.68,10.59,2.77,10.94,2.39,0,0,24.85-14.35,25.24-14.13,3.43,1.66,48.95,75.43,49.65,78.46S467.52,361.78,463.59,360.35Z" style="fill:#fff"></path><path d="M475.88,356.68c-.74-3.11-46.5-76.86-50-78.57-1.33-.66-13.39,5.29-25.34,14.1l29.57,47.52s29.59,19.47,33.65,20.94S476.61,359.79,475.88,356.68Z" style="fill:#1C5D65"></path><path d="M472.27,357.45c-8-12.17-39-62-45.95-74.67-.06-.1,0-.15.08,0,8.17,11.9,38.78,62,46.07,74.6C472.63,357.59,472.44,357.71,472.27,357.45Z" style="fill:#263238"></path><path d="M458.14,357.57a11.66,11.66,0,0,1-1.57-9.27,11.31,11.31,0,0,1,4.88-6.86c.08,0,.16.09.1.15a13.51,13.51,0,0,0-3.26,15.88C458.35,357.58,458.2,357.67,458.14,357.57Z" style="fill:#263238"></path><path d="M433.72,342.84c-3.14-4.91-5-11.73-2.81-17.32.08-.21.39-.09.4.1a80.5,80.5,0,0,0,3.07,16.92A.37.37,0,0,1,433.72,342.84Z" style="fill:#263238"></path><path d="M437.58,345.73c-3.14-4.9-4.95-11.72-2.81-17.31.08-.22.39-.1.4.1a80.61,80.61,0,0,0,3.07,16.92A.36.36,0,0,1,437.58,345.73Z" style="fill:#263238"></path><path d="M441.44,348.63c-3.14-4.91-4.95-11.73-2.81-17.31.08-.22.39-.1.4.09a80.59,80.59,0,0,0,3.07,16.93A.36.36,0,0,1,441.44,348.63Z" style="fill:#263238"></path><path d="M445.3,351.52c-3.14-4.9-4.95-11.72-2.81-17.31.08-.21.39-.09.4.1A80.61,80.61,0,0,0,446,351.23.36.36,0,0,1,445.3,351.52Z" style="fill:#263238"></path><path d="M416.53,293.22c-3.43-5.57,5.21-10.9,8.65-5.33S420,298.79,416.53,293.22Z" style="fill:#263238"></path><path d="M430.84,351.48c1.79-4.81,1.44-10.22,1.69-15.26a.71.71,0,0,0-.95-.64c-.05-.08-.14-.14-.24-.06a30.61,30.61,0,0,0-9.87,12.34c-1.19,2.89-1.27,7.3,2.37,8.52C427.27,357.53,429.8,354.29,430.84,351.48Zm-3.95,2.78c-5.69,2.84-4.57-4.58-3.6-6.67a34.6,34.6,0,0,1,2.21-3.88c1.68-2.6,3.69-4.92,5.61-7.34-.28,2.47-.34,4.94-.52,7.41C430.37,346.73,430,352.68,426.89,354.26Z" style="fill:#263238"></path><path d="M417.28,319.9c-3,2.39-1.4,6.51.72,8.81a30.49,30.49,0,0,0,13.51,8.19.15.15,0,0,0,.2-.14c.43,0,.88-.45.67-.93-2-4.64-3.5-9.85-6.84-13.75C423.6,319.81,420.11,317.64,417.28,319.9ZM428,329.4c1,2.26,1.93,4.56,3,6.78-2.63-1.61-5.31-3.09-7.78-5a32.37,32.37,0,0,1-3.42-2.88c-1.63-1.63-5.24-8.21,1.08-7.5C424.36,321.24,426.73,326.71,428,329.4Z" style="fill:#263238"></path><path d="M369.9,268.88s-67-33.19-97.39-33.74c-36.1-.65-65.44,41.34-22.12,73.56C288.68,337.17,412,338.88,412,338.88l-27.25-52.6s-33.65-14.22-78.21-17l61.85,14.51Z" style="fill:#37474f"></path><path d="M368.34,279.15c-5.29-1.51-10.69-2.59-16.08-3.73s-10.88-2.18-16.34-3.16A328.13,328.13,0,0,0,303,267.92c-1-.08-2.07-.14-3.1-.2-.21-.09-.45-.15-.67-.23-.51-.18-1-.36-1.55-.51-1-.29-2-.53-2.95-.78-2.05-.51-4.12-.93-6.16-1.52-.12,0-.19.15-.07.19,2,.66,4,1.46,6.08,2.11l1.77.56q-6.09-.26-12.19-.26a.1.1,0,0,0,0,.2c5.52.2,11.05.68,16.53,1.3S311.57,270,317,270.86c11,1.68,21.88,3.72,32.74,5.91,6.1,1.23,12.2,2.58,18.36,3.43C368.69,280.29,368.94,279.32,368.34,279.15Z" style="fill:#263238"></path><path d="M399.55,336.16c-1.67-3.35-3-6.87-4.52-10.29s-3-6.87-4.51-10.3c-3-6.85-13.92-29.95-15.06-31.6-.07-.1-.25,0-.22.11.45,1.75,7.19,17,8.75,20.4,3.12,6.81,6.44,13.51,9.71,20.25.93,1.93,1.9,3.83,2.85,5.75s2,3.81,2.82,5.76C399.42,336.36,399.61,336.27,399.55,336.16Z" style="fill:#263238"></path><path d="M238.46,349.27c1-3,53.29-72.08,56.87-73.41.4-.18,23.79,16.47,23.79,16.47,1,1.28,45.42-8.11,45.42-8.11l.44,53.62-81-1.72s-10.94,6.43-20.95,11.67h0c-6.16,3.24-11.61,6-13.16,6.38C245.82,355.22,237.47,352.21,238.46,349.27Z" style="fill:#d3766a"></path><path d="M249.87,354.18c1.56-.4,7-3.14,13.16-6.39,0,0,0,0,0,0,10-5.23,20.94-11.67,20.94-11.67l18,.39L330.24,291c-6.2,1.1-10.81,1.75-11.12,1.34,0,0-23.38-16.64-23.79-16.46-3.58,1.33-55.89,70.45-56.87,73.4S245.82,355.22,249.87,354.18Z" style="fill:#fff"></path><path d="M238,349.36c1-3,53.58-72.11,57.25-73.48,1.39-.53,12.83,6.54,23.89,16.45l-33.93,44.49s-31.31,16.59-35.49,17.66S237,352.39,238,349.36Z" style="fill:#1C5D65"></path><path d="M241.5,350.47c9.1-11.36,44.7-58.06,52.82-70,.07-.1,0-.15-.07-.06-9.26,11.07-44.48,58.05-52.94,69.9C241.13,350.58,241.31,350.71,241.5,350.47Z" style="fill:#263238"></path><path d="M255.56,351.92a11.67,11.67,0,0,0,2.44-9.08,11.32,11.32,0,0,0-4.21-7.29c-.07-.05-.17.08-.11.14a13.51,13.51,0,0,1,1.74,16.12A.09.09,0,0,0,255.56,351.92Z" style="fill:#263238"></path><path d="M281.26,339.57c3.59-4.58,6-11.2,4.44-17-.06-.22-.37-.13-.41.06a80.29,80.29,0,0,1-4.66,16.56A.36.36,0,0,0,281.26,339.57Z" style="fill:#263238"></path><path d="M277.15,342.09c3.59-4.59,6-11.2,4.44-17-.06-.22-.38-.13-.41.06a80.49,80.49,0,0,1-4.67,16.56A.37.37,0,0,0,277.15,342.09Z" style="fill:#263238"></path><path d="M273,344.61c3.59-4.59,6-11.21,4.44-17-.06-.22-.38-.13-.41.06a80.83,80.83,0,0,1-4.66,16.55A.37.37,0,0,0,273,344.61Z" style="fill:#263238"></path><path d="M268.91,347.12c3.59-4.58,6-11.2,4.44-17-.06-.23-.37-.14-.41.06a80.83,80.83,0,0,1-4.66,16.55A.36.36,0,0,0,268.91,347.12Z" style="fill:#263238"></path><path d="M303.08,291.81c3.94-5.22-4.15-11.35-8.1-6.13S299.13,297,303.08,291.81Z" style="fill:#263238"></path><path d="M289.82,354c3.73-.87,4.08-5.27,3.16-8.25a30.58,30.58,0,0,0-8.65-13.23.15.15,0,0,0-.24,0,.71.71,0,0,0-1,.55c-.23,5-1.1,10.4.23,15.35C284.08,351.35,286.29,354.81,289.82,354Zm-5.53-13.18c.06-2.48.23-4.94.19-7.42a91.42,91.42,0,0,1,4.88,7.83,33,33,0,0,1,1.84,4.07c.76,2.18,1.18,9.67-4.22,6.3C284,349.73,284.23,343.77,284.29,340.81Z" style="fill:#263238"></path><path d="M291.37,319.69c-3.69,3.56-5.71,8.6-8.11,13a.71.71,0,0,0,.58,1c0,.1.07.19.19.16A30.53,30.53,0,0,0,298.26,327c2.32-2.08,4.3-6,1.55-8.7S293.53,317.61,291.37,319.69Zm4.77-.79c6.36-.12,2.14,6.1.37,7.56a33,33,0,0,1-3.68,2.54,90.79,90.79,0,0,1-8.22,4.2c1.31-2.1,2.43-4.3,3.67-6.45C289.75,324.18,292.63,319,296.14,318.9Z" style="fill:#263238"></path><path d="M367,267.78s69.07-19,105.55-13.8c35.74,5.13,49.39,50.42,13.86,74-38.79,25.69-182.26,13-182.26,13l32-54.21s49.19-10.35,93.81-8.85L367,286.44Z" style="fill:#37474f"></path><path d="M334,290.21a.88.88,0,0,0,.06-.28l.06-.22c0-.18.09-.35.14-.53a10.24,10.24,0,0,1,.37-1.06c.14-.35.29-.69.45-1a8.58,8.58,0,0,1,.6-1s.06,0,.08-.06l.06,0s.05,0,.08,0,.05,0,.08,0c5.41-1,42.17-6.27,47.64-6.9s11-1.14,16.57-1.6a327.88,327.88,0,0,1,33.17-1.2c1,0,2.08.06,3.11.1.22-.07.46-.11.68-.17.53-.13,1.06-.26,1.6-.36,1-.19,2-.34,3-.49,2.09-.32,4.19-.54,6.27-.93a.1.1,0,1,1,.05.19c-2.09.47-4.15,1.07-6.24,1.53l-1.82.38c4.06.22,8.11.53,12.16.9.13,0,.13.21,0,.2-5.51-.32-11.06-.37-16.58-.27s-11,.21-16.43.52c-11.07.64-22.13,1.63-33.16,2.79-6.18.64-43.67,6.11-49.88,6.37H336a3.83,3.83,0,0,1-.17.43c-.17.33-.34.67-.52,1s-.36.63-.56.93l-.3.45-.16.23a1.19,1.19,0,0,0-.16.23C334.13,290.43,333.91,290.34,334,290.21Z" style="fill:#263238"></path><path d="M315.67,337.62c2-3.16,3.67-6.54,5.48-9.81l5.46-9.83c3.64-6.53,16.7-28.48,18-30,.08-.1.25,0,.21.13-.61,1.7-8.77,16.24-10.64,19.48-3.76,6.48-7.7,12.84-11.59,19.24-1.11,1.83-2.26,3.63-3.38,5.45s-2.32,3.6-3.36,5.47C315.78,337.84,315.6,337.73,315.67,337.62Z" style="fill:#263238"></path><path d="M359.58,184.83c-4.56,19.41-19.36,59.63-30.34,71.89-4.73,5.28-33.58,17-49.64,21-6,1.5-17.38-33-11.05-35.3,4.3-1.59,36.39-13,39.26-15.21,5.26-4.07,29.6-38.23,41.86-51.83C356.52,167.81,362.42,172.76,359.58,184.83Z" style="fill:#d3766a"></path><path d="M286.07,275.08c-.56.38-8.61,5.6-13.71,7.72-3.8,1.57-14.88,5.81-17,1.79-1.47-2.74,4.75-6,9.1-8.4,2.29-1.26,5-4.1,4.09-5.57-1.54-2.56-7.42.83-11.22,3.65-7.35,5.43-17.76,18.07-23,14.61-2-1.3.67-7.54,3.46-10.57-4.66,3.69-10.55,10.11-12.81,8.75-1.3-.78-.64-5.28-.13-6.78-1.49.68-2.87.73-3.93-.17-1.82-1.52-1.3-4.12.19-6.89a2,2,0,0,1-1.58-.81c-4-4.87,11.54-21.85,17.34-23.92,17.07-6.1,35.63-7.37,35.63-7.37C280,245.86,286.09,275.07,286.07,275.08Z" style="fill:#d3766a"></path><path d="M258.51,261.8a29.83,29.83,0,0,0-11.2,5.8c-4.12,3.42-6.69,7.18-10,11-.09.1.06.24.15.14,1.6-1.84,8.27-8.83,10-10.45a28.46,28.46,0,0,1,11.08-6.47S258.55,261.79,258.51,261.8Z" style="fill:#263238"></path><path d="M254.41,254.72a71.89,71.89,0,0,0-13.08,6.22c-4.42,2.91-7.65,7.2-10.83,11.34q-2.88,3.74-5.58,7.58c-.07.11.07.25.16.14q4.83-6.4,10.06-12.51a37.7,37.7,0,0,1,11.54-9.19c2.53-1.3,5.15-2.4,7.76-3.5A0,0,0,1,0,254.41,254.72Z" style="fill:#263238"></path><path d="M248.77,248.76c-4.37,1.42-8.19,2.64-11.89,5.47C232,258,227.51,263.9,225.94,266c-1.73,2.31-3.38,4.68-5,7.07-.06.1.1.22.17.12a148.83,148.83,0,0,1,12.16-15,29.82,29.82,0,0,1,7.09-5.81,53.23,53.23,0,0,1,8.42-3.55S248.79,248.76,248.77,248.76Z" style="fill:#263238"></path><path d="M347.18,233.32l-23.86-27.11s12.93-18.47,23.5-28.69,16.37-9.45,13,11.82S347.18,233.32,347.18,233.32Z" style="fill:#1C5D65"></path><path d="M328.39,202.19c1.89,1.57,18.1,20.08,19.41,22.17.06.1-.09.22-.18.14-1.9-1.59-18-20.16-19.33-22.23C328.25,202.21,328.34,202.14,328.39,202.19Z" style="fill:#263238"></path><path d="M359.85,189.34c-3.34,21.28-12.68,44-12.68,44l-15.45-17.57,25-44.61C360.52,171,361.88,176.38,359.85,189.34Z" style="opacity:0.1"></path><path d="M417,271.61s-87.26,2.67-87.26,2.68c.07,1.58,2.61-63.24,23.89-102,1.45-2.64,15.06-5.85,21.29-.89C402.26,193.16,417.06,272.63,417,271.61Z" style="fill:#1C5D65"></path><path d="M416.29,268.21,330,270.86c0-.3,0-.64.05-1l86-2.63C416.16,267.58,416.22,267.9,416.29,268.21Zm-1.5-6.7-84.22,2.59c0,.33-.05.66-.1,1l84.54-2.6C414.94,262.16,414.87,261.84,414.79,261.51Zm-1.36-5.73-82.3,2.52c0,.33-.05.66-.08,1l82.61-2.53C413.59,256.43,413.5,256.11,413.43,255.78ZM412,250.07l-80.19,2.45c0,.33-.07.65-.11,1L412.22,251C412.15,250.7,412.06,250.38,412,250.07Zm-1.52-5.73-77.92,2.38c0,.33-.09.67-.14,1l78.31-2.4C410.63,245,410.54,244.67,410.46,244.34Zm-1.63-5.72-75.46,2.31c-.05.33-.1.65-.14,1l75.89-2.34C409,239.26,408.93,238.94,408.83,238.62Zm-1.71-5.73-72.81,2.24c-.07.33-.12.65-.17,1l73.28-2.24Zm-1.81-5.72-70,2.15c-.07.33-.13.67-.19,1l70.49-2.16C405.53,227.82,405.41,227.51,405.31,227.17Zm-1.92-5.7-66.93,2c-.07.34-.14.67-.2,1l67.46-2.07C403.62,222.11,403.5,221.79,403.39,221.47Zm-2.06-5.71-63.62,1.94-.21,1,64.19-2C401.58,216.39,401.45,216.07,401.33,215.76Zm-2.21-5.71-60,1.85c-.08.33-.17.66-.24,1L399.51,211C399.39,210.69,399.26,210.37,399.12,210.05Zm-2.37-5.69-56.13,1.71c-.09.32-.19.65-.28,1l56.81-1.74C397,205,396.89,204.68,396.75,204.36Zm-2.59-5.69-51.86,1.58c-.1.32-.2.65-.29,1l52.6-1.6ZM391.29,193l-47.11,1.45c-.12.33-.23.65-.33,1l47.94-1.47C391.63,193.62,391.46,193.3,391.29,193Zm-3.22-5.67-41.81,1.28c-.13.32-.24.65-.37,1l42.74-1.32Zm-3.73-5.65-35.72,1.09c-.15.31-.27.64-.42,1L385,182.6C384.78,182.28,384.57,182,384.34,181.66ZM379.81,176l-28.5.88c-.18.31-.34.65-.49,1l29.82-.92C380.37,176.64,380.08,176.33,379.81,176Zm-6.39-5.57L355.3,171a5.06,5.06,0,0,0-1.42,1l21-.64A8.06,8.06,0,0,0,373.42,170.45Z" style="opacity:0.1"></path><rect x="320.28" y="237.84" width="19.56" height="27.22" transform="translate(-53.42 93) rotate(-14.85)" style="fill:#fff"></rect><path d="M343.16,262.19,324,267.27,317,240.71l19.16-5.08Zm-19,4.76L342.84,262,335.93,236l-18.66,4.94Z" style="fill:#263238"></path><rect x="322.35" y="239.96" width="15.4" height="22.97" transform="translate(-53.42 93) rotate(-14.85)" style="fill:#c7c7c7"></rect><rect x="313.85" y="243.26" width="19.56" height="27.22" transform="translate(-88.96 234.67) rotate(-35.36)" style="fill:#fff"></rect><path d="M339.66,262.34,323.5,273.81,307.59,251.4l16.17-11.47Zm-16.1,11.11,15.74-11.17-15.6-22L308,251.46Z" style="fill:#263238"></path><rect x="315.93" y="245.39" width="15.4" height="22.97" transform="translate(-88.96 234.67) rotate(-35.36)" style="fill:#455a64"></rect><path d="M381.06,173.53c19.75,13.53,54.82,52.16,52.45,62.32-4.37,18.75-53.22,35.18-62.65,39-4,1.63-13.16-36.71-8.9-38.54,3.72-1.6,30-6.27,30.47-9.71.18-1.42-11-19.85-19.72-41.41C366,168.67,375.21,169.52,381.06,173.53Z" style="fill:#d3766a"></path><path d="M372.24,235.42s-2.35.51-15.15,1.16c-8.86.45-30.14,7.21-38,30.85-3,9.05,2,15.13,6.82,6.28,3.39-6.24,5.2-10.85,6.88-12.57,0,0,1.88,10.7,7.57,13.39a115.27,115.27,0,0,0,15.36,6,24.76,24.76,0,0,0,1.38-2.78,13.2,13.2,0,0,0,13.79-2.9Z" style="fill:#d3766a"></path><path d="M348.7,238.36c-3.34,3.23-10.31,10.19-14,17.87-4.13,8.53-9.79,26.08-3.46,29.06,4.64,2.19,7.39-4.32,7.39-4.32s-.81,7.75,3.82,8.8c4.21,1,6-4.19,6-4.19s.32,4.78,4.56,4.93c5.1.17,3.59-9.88,8.91-14.16C363.13,275.39,348.7,238.36,348.7,238.36Z" style="fill:#d3766a"></path><path d="M344.42,259.09c-2.65,3.56-6.58,13.17-5.92,21.72,0,.19.17.29.19.11a93,93,0,0,1,5.81-21.79C344.52,259.08,344.45,259.05,344.42,259.09Z" style="fill:#263238"></path><path d="M352.91,263.51c-2,3.3-5.58,13.39-4.62,22,0,.2.18.28.2.1a99.49,99.49,0,0,1,4.5-22.1S352.93,263.47,352.91,263.51Z" style="fill:#263238"></path><path d="M421.09,209l-35,8.72s-10.45-20-14.68-34.05-.87-18.88,16.49-6.14S421.09,209,421.09,209Z" style="fill:#1C5D65"></path><path d="M384.81,211.34c2.27-1,26.16-6.84,28.61-7a.12.12,0,0,1,.05.22c-2.29,1-26.2,6.75-28.63,6.95A.07.07,0,0,1,384.81,211.34Z" style="fill:#263238"></path><path d="M376.22,199.14c.54.9,1.1,1.8,1.69,2.67l.57.9c-.17-.39-.35-.77-.51-1.15-1-2.34-1.87-4.72-2.79-7.09a.06.06,0,0,1,.11,0q3,6.16,5.91,12.36,1.41,3,2.81,6.05c.49,1.06,1,2.12,1.45,3.18.18.39.35,1.25.81,1.34a6.33,6.33,0,0,0,1.83-.22c.11,0,.16.16,0,.19-.6.14-1.18.37-1.77.49a.92.92,0,0,1-.71,0,2.29,2.29,0,0,1-.64-.94c-.29-.56-.56-1.14-.85-1.71-1.1-2.23-2.15-4.49-3.17-6.76l-1.92-4.29a23.84,23.84,0,0,1-1.44-2.16c-.52-.91-1-1.83-1.48-2.77A0,0,0,0,1,376.22,199.14Z" style="fill:#263238"></path><path d="M332.48,247.18c-.81.8-1.6,1.62-2.34,2.48s-1.48,1.71-2.18,2.6a56,56,0,0,0-3.88,5.53,53,53,0,0,0-3.21,5.93c-.23.51-.49,1-.7,1.54l-.62,1.58c-.46,1-.74,2.14-1.17,3.2.1-.56.2-1.12.32-1.68a16.16,16.16,0,0,1,.39-1.67c.31-1.1.65-2.2,1.07-3.27s.91-2.11,1.38-3.16,1.07-2,1.7-3a36.31,36.31,0,0,1,4.14-5.5A30,30,0,0,1,332.48,247.18Z" style="fill:#263238"></path><path d="M355.7,186.37c4.23.61,12.42-5.06,14.83-11.24.17-.42-1-4.52-2.14-9.56-.69-3.07-1.38-6.49-1.79-9.67-.08-.65-19.28,7.41-19.28,7.41a50.92,50.92,0,0,1,3.5,11.93,7.36,7.36,0,0,1,0,1.32,1.61,1.61,0,0,0,0,.22C350.76,179.31,351.18,185.72,355.7,186.37Z" style="fill:#d3766a"></path><path d="M350.84,176.56c0,.06,0,.14,0,.22a13.93,13.93,0,0,0,2-.16c11.68-1.77,12.88-16.83,13-20.62-3.47,1-18.57,7.31-18.57,7.31a50.9,50.9,0,0,1,3.5,11.94A7.22,7.22,0,0,1,350.84,176.56Z" style="fill:#263238"></path><path d="M366.23,132.28c2.87,6.87,1.19,27.69-3.39,32.76-6.64,7.34-18.52,9.17-25,1-6.3-8-3.62-35.06,1.59-39.77C347.08,119.3,362,122.15,366.23,132.28Z" style="fill:#d3766a"></path><path d="M350.47,148.44c0-.05.11.08.1.14-.15,1.4-.09,3,1.15,3.59,0,0,0,.09,0,.08C350.17,151.91,350.1,149.75,350.47,148.44Z" style="fill:#263238"></path><path d="M351.84,147.07c2.27,0,2.1,4.54,0,4.54S349.93,147.07,351.84,147.07Z" style="fill:#263238"></path><path d="M341.53,148.23s-.11.06-.11.12c0,1.41-.26,3-1.54,3.44,0,0,0,.08,0,.08C341.44,151.71,341.75,149.56,341.53,148.23Z" style="fill:#263238"></path><path d="M340.33,146.72c-2.26-.26-2.6,4.27-.51,4.51S342.22,146.93,340.33,146.72Z" style="fill:#263238"></path><path d="M353.7,145.06a15.91,15.91,0,0,1-1.73-.68,3.09,3.09,0,0,1-1.64-1,1,1,0,0,1,.2-1.16,2.39,2.39,0,0,1,2.41-.16,3.52,3.52,0,0,1,2,1.59A1,1,0,0,1,353.7,145.06Z" style="fill:#263238"></path><path d="M338.66,144.36a14.43,14.43,0,0,0,1.82-.4,3,3,0,0,0,1.78-.76,1,1,0,0,0,0-1.17,2.38,2.38,0,0,0-2.36-.54,3.44,3.44,0,0,0-2.18,1.26A1,1,0,0,0,338.66,144.36Z" style="fill:#263238"></path><path d="M350.5,161.4c-.35.32-.7.76-1.22.78a3.57,3.57,0,0,1-1.49-.41.05.05,0,0,0-.07.07,1.89,1.89,0,0,0,1.76.83,1.47,1.47,0,0,0,1.15-1.2C350.66,161.39,350.55,161.35,350.5,161.4Z" style="fill:#263238"></path><path d="M349.18,157.14a4.83,4.83,0,0,1-3.28,2,5.83,5.83,0,0,1-1.72,0,1.14,1.14,0,0,1-.33,0l-.31-.05a.35.35,0,0,1-.27-.33h0a.68.68,0,0,1,0-.14h0v-.13c0-1.08.17-2.72.17-2.72-.4.18-2.45,1-2.4.45.46-4.67,1-9.87,2.4-14.43,0-.15.27-.1.25,0-.26,4.51-1.3,8.94-1.63,13.46a8.49,8.49,0,0,1,2.28-.6c.15,0-.38,3.17-.34,3.66a.18.18,0,0,0,0,.05c1.81.3,3.2-.2,5-1.36C349.16,156.93,349.26,157,349.18,157.14Z" style="fill:#263238"></path><path d="M344.83,158.64a5.79,5.79,0,0,0,2.21,1.85,2.55,2.55,0,0,0,1.55.15c1.14-.25,1.2-1.28,1-2.17a6.26,6.26,0,0,0-.45-1.37A7.42,7.42,0,0,1,344.83,158.64Z" style="fill:#263238"></path><path d="M347,160.49a2.55,2.55,0,0,0,1.55.15c1.14-.25,1.2-1.28,1-2.17A2.65,2.65,0,0,0,347,160.49Z" style="fill:#ff98b9"></path><path d="M370,148.33c-5.51,1.11-9.27-5.13-8.67-10.63,0,0-14.51,3.89-16.77-7.87a11.75,11.75,0,0,1-8.9,6.58L334.56,141c-1.57-.24-3.75-4.33-.48-8.19,0,0-.52-6,3.37-10.06a8.14,8.14,0,0,1,8.53-2.35A12.28,12.28,0,0,1,354.6,117a10.47,10.47,0,0,1,8.41,4.65s7.5.44,9.43,5.48a10.86,10.86,0,0,1-.31,8.86s2.1,1.8,1.75,6.36C373.66,145.31,371.63,148,370,148.33Z" style="fill:#263238"></path><path d="M344.73,128.73a14,14,0,0,0,.35,2.9,11.51,11.51,0,0,0,.9,2.73,7.52,7.52,0,0,0,4,3.81,12.21,12.21,0,0,0,5.62.66c.95-.16,1.92-.25,2.87-.45s1.9-.47,2.86-.68c-.91.35-1.84.67-2.77,1s-1.93.43-2.9.65a12.08,12.08,0,0,1-5.95-.54,7.89,7.89,0,0,1-4.19-4.23A12,12,0,0,1,344.73,128.73Z" style="fill:#263238"></path><path d="M363,121.68a13.8,13.8,0,0,1,5.6.47,8.28,8.28,0,0,1,4.63,3.3,8.93,8.93,0,0,1,1.06,2.68,8.4,8.4,0,0,1,.23,2.87,7.64,7.64,0,0,1-2.4,5A8.48,8.48,0,0,0,374,131a9.49,9.49,0,0,0-1.35-5.14,7.23,7.23,0,0,0-1.81-1.93,10.56,10.56,0,0,0-2.41-1.24A17.61,17.61,0,0,0,363,121.68Z" style="fill:#263238"></path><path d="M346,120.39a14,14,0,0,0-4.45-.27,8.65,8.65,0,0,0-4,1.46,8.74,8.74,0,0,0-2.69,3.37,15.14,15.14,0,0,0-1.23,4.29,11.22,11.22,0,0,1,.75-4.5,7.63,7.63,0,0,1,7.18-5.15A10.53,10.53,0,0,1,346,120.39Z" style="fill:#263238"></path><path d="M338,136.58a15.37,15.37,0,0,0,4.16-3,8.78,8.78,0,0,0,1.49-2,11.77,11.77,0,0,0,.95-2.4,6.29,6.29,0,0,1-.47,2.63,7,7,0,0,1-1.47,2.28,8.72,8.72,0,0,1-2.15,1.63A8.1,8.1,0,0,1,338,136.58Z" style="fill:#263238"></path><path d="M362.76,149.7s4.1-7,7.24-5.58.42,11.29-3,12.89a3.61,3.61,0,0,1-5-1.55Z" style="fill:#d3766a"></path><path d="M369.15,146.93c.05,0,.07.07,0,.09-2.39,1.2-3.51,3.6-4.23,6a2,2,0,0,1,2.92-.78c.07.05,0,.15-.06.14a2.21,2.21,0,0,0-2.36,1,10.1,10.1,0,0,0-1,2.06c-.1.23-.51.14-.44-.12v-.06C363.69,152.13,365.79,147.52,369.15,146.93Z" style="fill:#263238"></path></g><g id="freepik--character-3--inject-134"><path d="M555.62,292a48.19,48.19,0,0,1-7.31,8.37c2.37-9.76-4.08-28.2-3.86-25.36,1,13.61-2.71,30-5.55,31.62l0,0a36.69,36.69,0,0,1-23.21,2.06s0,0,0-.05c3.46-11.27-2.6-30.18-2.67-28.89-.85,13.8-8.22,24-9.88,24.45h0c-7.95-4-13-8.87-12.3-9.73,5.05-6.28,7.06-19.11,8.35-32.42h0c1.28-13.12.34-24.94,4-37.41,3.33-11.41,15.22-17,23.75-14.31C549.24,217.39,558.62,287.66,555.62,292Z" style="fill:#263238"></path><path d="M525.36,209.91a12.93,12.93,0,0,1,5.12,2.11,31.85,31.85,0,0,1,4.37,3.49,53.31,53.31,0,0,1,7,8.73,83.58,83.58,0,0,1,9.37,20.23A131.39,131.39,0,0,1,556,266.24c.27,1.84.42,3.69.64,5.54l.48,5.54.26,5.56.09,5.56L557,282.9l-.54-5.52-.64-5.51c-.28-1.83-.49-3.67-.82-5.48a141.39,141.39,0,0,0-5-21.54,88.31,88.31,0,0,0-9-20.12,54.2,54.2,0,0,0-6.61-8.81,30.4,30.4,0,0,0-4.13-3.64,19,19,0,0,0-2.36-1.43A9.25,9.25,0,0,0,525.36,209.91Z" style="fill:#263238"></path><path d="M489.44,292.74a94.74,94.74,0,0,0,3.17-9.08c.94-3.07,1.77-6.16,2.44-9.29s1.26-6.27,1.65-9.43.66-6.38,1-9.57c.73-6.39,1.46-12.79,2.57-19.13.57-3.17,1.2-6.33,2-9.45a44.21,44.21,0,0,1,1.52-4.6,11.82,11.82,0,0,1,2.49-4.12,12.57,12.57,0,0,0-2.18,4.24,45.8,45.8,0,0,0-1.25,4.63c-.71,3.11-1.23,6.28-1.68,9.45-.91,6.34-1.64,12.72-2.28,19.11-.38,3.19-.68,6.37-1.11,9.58a84.91,84.91,0,0,1-1.84,9.51A92.28,92.28,0,0,1,489.44,292.74Z" style="fill:#263238"></path><path d="M521.18,263.06c-26.64,27.72-65.47,97.93-70.27,108-3.26,6.84,32.47,24.85,34,19.88,1.94-6.37,33.06-84.94,41.33-114.58C530.78,260,526.68,257.33,521.18,263.06Z" style="fill:#f7a9a0"></path><path d="M487,386.24c-1.25,3.4-5.49,17.86-8.46,19.66s-18.53,1.42-26.38,1.42-9.39-2.19-9.27-4.89,16.6-3.22,16.6-3.22-22,6.31-27.52,7.34-18.28,4.24-20.12-.35c-.84-2.06,2.65-4.16,2.65-4.16s-5.34,1.56-6.19-1.09c-1-3,3.28-4.7,3.28-4.7s-3.34.68-3.42-1.79c-.17-5.51,20.74-8.22,20.74-8.22s-16,7.8-16.53,3.3c-.71-6.22,32.12-13.05,35.53-15.76a23.36,23.36,0,0,0,5.48-6.76Z" style="fill:#f7a9a0"></path><path d="M443,403.8a2.42,2.42,0,0,1,.75-2.1,6.62,6.62,0,0,1,1.91-1.24,25.18,25.18,0,0,1,4.5-1.46c3.09-.79,6.26-1.34,9.42-2.16a38.63,38.63,0,0,0-9.69,1.09,17.85,17.85,0,0,0-4.63,1.77,6.37,6.37,0,0,0-1.93,1.66A2.52,2.52,0,0,0,443,403.8Z" style="fill:#263238"></path><path d="M414.46,402c2.27-.55,4.5-1.19,6.72-1.83s4.44-1.33,6.66-2l6.62-2.07c2.21-.69,4.42-1.38,6.65-2.05a53.45,53.45,0,0,0-6.87,1.23c-2.27.52-4.5,1.17-6.73,1.84s-4.42,1.42-6.59,2.25S416.58,401.06,414.46,402Z" style="fill:#263238"></path><path d="M435.8,388.6a43.56,43.56,0,0,0-6.34.88,60.16,60.16,0,0,0-6.21,1.6,55.57,55.57,0,0,0-6,2.24,45,45,0,0,0-5.69,2.93c2-.69,4-1.47,6-2.14s4-1.36,6-2,4-1.23,6.08-1.83S433.74,389.16,435.8,388.6Z" style="fill:#263238"></path><path d="M432.57,383.35A42.54,42.54,0,0,0,413.18,390c3.25-1.15,6.41-2.38,9.64-3.45S429.28,384.41,432.57,383.35Z" style="fill:#263238"></path><path d="M514.58,325l-27.69-16.53s19-31.73,29.93-42.91,13.62-5.74,10.32,11.71S514.58,325,514.58,325Z" style="fill:#1C5D65"></path><path d="M515.34,317.78c-11.92-5.63-21.45-12.29-23.58-13.5-.1,0,0-.21.1-.15,2,1.29,14.18,7.61,23.59,13.49C515.56,317.69,515.46,317.84,515.34,317.78Z" style="fill:#263238"></path><path d="M522,298.89c-.7,2.63-1.41,5.23-2.09,7.7l-23.67-13.08c1.36-2.08,2.8-4.27,4.28-6.49Z" style="fill:#ebebeb"></path><path d="M518.92,310.2q-.51,1.8-1,3.45l-25.52-14.11c.59-.94,1.22-1.93,1.88-3Z" style="fill:#ebebeb"></path><path d="M527.14,277.28c-3.3,17.44-12.56,47.73-12.56,47.73L492,311.51l34-51.69C528.93,260.52,529.14,266.69,527.14,277.28Z" style="opacity:0.1"></path><path d="M662.45,431.88c.24,3.23-9,4.15-12.84,2.06-1.23-.66-4.68-3.58-8.89-7.3-9.26-8.19-22.06-20.17-22.06-20.17l-9.48,4.27-44.94,15.37-20.92-50.5s22.41-9.48,43.72-18c3.28-1.3,6.51-2.57,9.66-3.79l.58-.23c14.3-5.5,26.15-9.66,27.36-8.81C627.92,347.09,662.2,428.62,662.45,431.88Z" style="fill:#f7a9a0"></path><path d="M662.44,431.88c.26,3.23-9,4.15-12.83,2.06-1.23-.66-4.68-3.59-8.89-7.3-1.39-1.22-2.86-2.54-4.34-3.88,4.44,2.68,9.15,4.61,6.64-1.19-4.38-10.09-41.11-69.16-44.09-68.25l-.11-.3c13.61-5.19,24.66-9,25.82-8.2C627.92,347.09,662.2,428.62,662.44,431.88Z" style="fill:#263238"></path><path d="M662.45,431.88c.24,3.23-9,4.15-12.85,2.06-1.22-.66-4.68-3.58-8.88-7.3-9.26-8.18-22.06-20.16-22.06-20.16l-9.49,4.26-44.93,15.37-17.07-41.19,87.43-20C645.81,389.9,662.28,429.63,662.45,431.88Z" style="opacity:0.1"></path><path d="M599.93,421s-100.7,23.13-137.74,16.45c-17.73-3.19-30.52-26-22-43.48,7.95-16.3,56.55-32.85,70.29-42.44,4.32-3,3.86-14.92,3.86-14.92l36.08-.49s12.85,20.43,7.4,30.38a3.23,3.23,0,0,1-.3.49l16.27-6.19Z" style="fill:#455a64"></path><path d="M577.64,393.73c-4-8.72-8.42-17.24-12.51-25.93-.07-.16-.34-.07-.27.1,3.86,8.75,7.42,17.63,11.42,26.32s8.37,17.26,12.58,25.89c.11.22.47.1.36-.13C585.34,411.24,581.63,402.43,577.64,393.73Z" style="fill:#263238"></path><path d="M557.75,367.37c-2.48,1.44-4.85,3.13-7.27,4.69s-4.78,3.06-7.22,4.51c-4.92,2.92-10,5.66-15.06,8.26a257,257,0,0,1-31.78,13.69c-6.07,2.13-12.21,4.22-18.46,5.77-.14,0-.07.24.06.21,4.55-1.09,9.1-2.16,13.6-3.43-2.39,1.5-4.73,3.07-7.1,4.59a.11.11,0,0,0,.11.19c2.6-1.57,5.23-3.07,7.8-4.67a.25.25,0,0,0,.07-.37c.77-.22,1.54-.43,2.31-.67,5.56-1.72,11.06-3.65,16.46-5.84a201.57,201.57,0,0,0,30.79-15.57q4.14-2.57,8.19-5.29a75.31,75.31,0,0,0,7.77-5.75C558.2,367.53,558,367.26,557.75,367.37Z" style="fill:#263238"></path><path d="M700.28,445.13c.24,3.23-9,4.15-12.85,2.06-1.22-.66-4.68-3.58-8.89-7.3-9.25-8.18-22-20.16-22-20.16L647,424l-45,15.37-20.91-50.5s22.41-9.48,43.72-18c3.28-1.3,6.51-2.56,9.65-3.79l.58-.23c14.31-5.5,26.16-9.66,27.37-8.81C665.74,360.34,700,441.88,700.28,445.13Z" style="fill:#f7a9a0"></path><path d="M700.27,445.13c.25,3.23-9,4.15-12.84,2.06-1.22-.66-4.68-3.59-8.89-7.3-1.39-1.22-2.85-2.54-4.34-3.88,4.45,2.68,9.16,4.62,6.65-1.19-4.38-10.09-41.11-69.16-44.09-68.25l-.11-.3c13.61-5.19,24.66-9,25.82-8.2C665.74,360.34,700,441.88,700.27,445.13Z" style="fill:#263238"></path><path d="M526.74,336.33l62-.93s13.16,33.48,7.71,43.44S533.9,403,533.9,403l78.54-29.88,26.14,60.19S543.09,454.14,492.44,449c-19-1.94-30.94-26.77-19.81-45.85,11.72-20.07,54.22-47.53,54.22-47.53Z" style="fill:#455a64"></path><path d="M610.4,373c-24,11-48.29,21.48-73.1,30.64-3.44,1.27-6.89,2.54-10.35,3.77s-7.14,2.77-10.81,3.8c-.18.05-.08.34.09.27,3.16-1.18,6.45-2,9.65-3.08s6.28-2.07,9.4-3.16l4-1.43-.81.56c-1.24.83-2.48,1.66-3.7,2.51-2.51,1.77-4.84,3.86-7.47,5.43-.16.1,0,.35.15.25,2.5-1.78,5.32-3.11,7.9-4.79,1.25-.81,2.47-1.66,3.68-2.53a24.91,24.91,0,0,0,3.24-2.49c4-1.41,7.89-2.85,11.81-4.35q18.52-7.06,36.6-15.22c6.73-3.05,13.4-6.21,20-9.56C611,373.43,610.75,372.82,610.4,373Z" style="fill:#263238"></path><path d="M617.67,405.58c-4-8.72-8.42-17.25-12.5-25.93-.08-.17-.35-.08-.27.09,3.85,8.76,7.41,17.63,11.42,26.32s8.36,17.27,12.57,25.89c.11.22.47.11.37-.13C625.37,423.08,621.67,414.27,617.67,405.58Z" style="fill:#263238"></path><path d="M525.73,356.26a168,168,0,0,0-19.59,13c-6.22,4.61-12.25,9.49-18,14.68-2.9,2.62-5.7,5.36-8.41,8.18a63.17,63.17,0,0,0-7.13,8.61,30.21,30.21,0,0,0-5.14,18.92A32.1,32.1,0,0,0,469.93,430a38.22,38.22,0,0,0,5.75,8.87c.08.11.25-.05.15-.16a24.31,24.31,0,0,1-4.85-8.48,32.21,32.21,0,0,1-1.92-9,31.83,31.83,0,0,1,4.34-18.27c3.81-6.32,9.41-11.56,14.73-16.59a223.61,223.61,0,0,1,17.25-14.69c3.36-2.59,6.78-5.1,10.23-7.57s7-4.85,10.35-7.43A.22.22,0,0,0,525.73,356.26Z" style="fill:#263238"></path><path d="M543.76,358.75c-5-1.76-10.56-2.44-15.85-3s-10.58-.87-15.9-1c-.14,0-.13.21,0,.22,5.38.48,10.77,1.16,16.11,2,5.18.77,10.36,1.89,15.57,2.31C544,359.29,544,358.84,543.76,358.75Z" style="fill:#263238"></path><path d="M585.94,359.49a76.05,76.05,0,0,1-9.88-.9c-2.72-.39-5.49-.79-7.75-2.48-4.4-3.3-6.19-9.1-7.12-14.28,0-.12-.23-.09-.22,0,.75,5.64,1,12.11,6,15.89,2.45,1.88,5.41,2.44,8.42,2.64a52.91,52.91,0,0,0,10.59-.66C586.09,359.71,586.1,359.49,585.94,359.49Z" style="fill:#263238"></path><path d="M592.76,368.42a64.91,64.91,0,0,0-1.74-9.67c-.77-3.27-1.7-6.51-2.74-9.71-1.18-3.63-2.54-7.2-4-10.74,0-.13-.26-.07-.21.07,2,6,3.91,12.05,5.47,18.18q1.15,4.56,2.08,9.18a19.19,19.19,0,0,1,.05,9,15.79,15.79,0,0,1-5,7.73s0,.06,0,0A16.19,16.19,0,0,0,592.76,368.42Z" style="fill:#263238"></path><path d="M603.37,386.82c-4.18,1.09-8.28,2.53-12.4,3.87s-8.23,2.67-12.34,4c-8.22,2.74-16.41,5.57-24.6,8.4-4.65,1.61-9.27,3.32-13.89,5-.13.05-.07.26.07.21Q565,400.66,589.54,392c4.63-1.63,9.34-3.14,13.88-5A.08.08,0,0,0,603.37,386.82Z" style="fill:#263238"></path><path d="M510.4,317.92l-.78,32,85.25-3.61s-25.07-66.75-46-83.9c-10.47-8.57-21-6.33-26.86,1.53-1.47,2-16.11,26.9-16.81,37.57C504.59,310.88,510.4,317.92,510.4,317.92Z" style="fill:#1C5D65"></path><path d="M538.14,311.22a78.84,78.84,0,0,0-12.24,2.5c-2,.6-3.93,1.3-5.88,2-1,.37-1.94.71-2.92,1a12.3,12.3,0,0,1-3.15.72.08.08,0,0,0,0,.16,22.17,22.17,0,0,0,3-.14,20.52,20.52,0,0,0,2.89-.67c2-.59,4-1.28,6-1.89,4.06-1.24,8.13-2.48,12.27-3.4C538.39,311.55,538.33,311.2,538.14,311.22Z" style="fill:#263238"></path><path d="M548.47,314.9a84,84,0,0,0-10.28-.26c-1.72.06-3.42.24-5.12.46-.81.11-1.63.23-2.44.36s-1.76.42-2.65.55c-.1,0-.09.17,0,.16.85-.1,1.71,0,2.56-.09l2.56-.14c1.71-.09,3.42-.15,5.13-.26,3.42-.22,6.82-.39,10.25-.48C548.66,315.2,548.64,314.91,548.47,314.9Z" style="fill:#263238"></path><path d="M550,261.82c27.78,12.49,59.55,37.32,64.1,54.93,4.49,17.38-3.94,21.28-5.72,21.16-18.75-1.3-53.06-48.11-65.52-66S543.11,258.73,550,261.82Z" style="fill:#f7a9a0"></path><path d="M596.08,288.09,572.45,310s-25.12-27.16-32.79-40.77-1.68-14.69,14.14-6.62S596.08,288.09,596.08,288.09Z" style="fill:#1C5D65"></path><path d="M579.07,277.26,559.13,295c-1.62-1.91-3.31-3.91-5-5.94l18-16C574.52,274.46,576.85,275.89,579.07,277.26Z" style="fill:#ebebeb"></path><path d="M585.38,281.22l-21.57,19.16c-.74-.84-1.51-1.72-2.3-2.64l20.78-18.47Z" style="fill:#ebebeb"></path><path d="M589.36,285.33c-8.75,9.86-17.82,17.14-19.58,18.85-.08.08-.2-.06-.11-.14,1.81-1.59,11.28-11.48,19.56-18.86C589.33,285.09,589.44,285.23,589.36,285.33Z" style="fill:#263238"></path><path d="M574,308.55a14,14,0,0,0-1.47,1.12c-3.86-4.6-3.1-3.51-7-8.07l-5.73-6.71c-2-2.33-3.85-4.8-6-7-.06-.07-.15,0-.11.09,1.47,2.3,3.22,4.45,4.91,6.6-.34-.31-.66-.64-1-.94-.79-.67-1.57-1.34-2.31-2.07-.12-.11-.31.05-.19.16.7.7,1.35,1.43,2,2.18s1.34,1.45,2,2.15,1.4,1.3,2.12,1.92l.26.24c1.07,1.34,2.13,2.7,3.23,4a72.79,72.79,0,0,0,7.63,8.06,15.08,15.08,0,0,0,1.71-1.61C574.12,308.6,574,308.52,574,308.55Z" style="fill:#263238"></path><path d="M535.74,261.31c0,2.05-3,12-9.09,12.92-3.14.48-5.27-10.44-5.27-10.44l-.3-.77-4.28-10.84,13.6-12S535.74,260.72,535.74,261.31Z" style="fill:#f7a9a0"></path><path d="M532.38,247.87A23.38,23.38,0,0,1,521.07,263l-4.28-10.84,13.61-12S531.32,243.71,532.38,247.87Z" style="fill:#263238"></path><path d="M498.18,237.59c.87,20.44,13.21,22.22,17.62,22,4-.18,17.6-1.29,18.84-21.71s-8.54-26.47-17.71-26.55S497.3,217.15,498.18,237.59Z" style="fill:#f7a9a0"></path><path d="M503.62,233.12a12.35,12.35,0,0,0,1.36-.36,2.32,2.32,0,0,0,1.33-.64.75.75,0,0,0-.05-.89,1.82,1.82,0,0,0-1.8-.32,2.63,2.63,0,0,0-1.61,1A.77.77,0,0,0,503.62,233.12Z" style="fill:#263238"></path><path d="M516.76,232.09c-.49,0-.93-.1-1.41-.15a2.3,2.3,0,0,1-1.4-.43.72.72,0,0,1-.09-.88,1.8,1.8,0,0,1,1.73-.6,2.67,2.67,0,0,1,1.75.76A.78.78,0,0,1,516.76,232.09Z" style="fill:#263238"></path><path d="M514.57,237.5c0-.05.11.06.12.11.06,1.4.37,3,1.66,3.34,0,0,0,.08,0,.08C514.8,240.93,514.41,238.83,514.57,237.5Z" style="fill:#263238"></path><path d="M515.7,236c2.22-.34,2.74,4.12.68,4.44S513.84,236.24,515.7,236Z" style="fill:#263238"></path><path d="M516.6,236.08c.42.21.85.61,1.33.6s.91-.52,1.21-1c0,0,.07,0,.08,0,.12.85-.11,1.77-1,2s-1.52-.47-1.83-1.3C516.32,236.25,516.43,236,516.6,236.08Z" style="fill:#263238"></path><path d="M506.58,238.07s-.1.08-.1.13c.15,1.39.09,3-1.13,3.56,0,0,0,.09,0,.07C506.89,241.5,507,239.36,506.58,238.07Z" style="fill:#263238"></path><path d="M505.23,236.72c-2.25,0-2.08,4.49,0,4.49S507.11,236.72,505.23,236.72Z" style="fill:#263238"></path><path d="M504.3,237.05c-.34.25-.68.69-1.1.74s-.87-.42-1.2-.88c0,0-.07,0-.07.05,0,.86.32,1.75,1.16,1.88s1.28-.63,1.45-1.5C504.57,237.18,504.44,237,504.3,237.05Z" style="fill:#263238"></path><path d="M516.13,248.47c-.21.42-.37.95-.83,1.16a3.59,3.59,0,0,1-1.53.18s-.07.05,0,.08a1.84,1.84,0,0,0,1.92.12,1.49,1.49,0,0,0,.62-1.53C516.27,248.4,516.16,248.41,516.13,248.47Z" style="fill:#263238"></path><path d="M509.3,244.25s-.06,2.1,0,3.08a5.28,5.28,0,0,0,4.94-2.12c.07-.1-.07-.19-.16-.12a7,7,0,0,1-4.1,1.66c-.1-.26.23-3.59.07-3.59a8.66,8.66,0,0,0-2.16.74c0-4.38.73-8.72.68-13.07a.13.13,0,0,0-.26,0c-1.08,4.49-1.2,9.53-1.33,14.05C507,245.4,508.93,244.46,509.3,244.25Z" style="fill:#263238"></path><path d="M510.66,247.08a5.06,5.06,0,0,0,2.21,1.31,2.26,2.26,0,0,0,1.38-.08c1-.39.88-1.3.6-2.06a5.26,5.26,0,0,0-.6-1.14A6.53,6.53,0,0,1,510.66,247.08Z" style="fill:#263238"></path><path d="M512.87,248.39a2.26,2.26,0,0,0,1.38-.08c1-.39.88-1.3.6-2.06A2.34,2.34,0,0,0,512.87,248.39Z" style="fill:#ff98b9"></path><path d="M533.37,239.24c-3.75.93-5.75-7.69-5.75-7.69s-16.55-.84-19.48-13.9a22.49,22.49,0,0,1-9.85,13.56s-1.13-14.55,10-18.71c0,0,13.64-6.86,23,3.51S535.89,238.61,533.37,239.24Z" style="fill:#263238"></path><path d="M531.46,239.62s3.6-6.91,6.68-5.7.94,10.82-2.27,12.51a3.45,3.45,0,0,1-4.83-1.25Z" style="fill:#f7a9a0"></path><path d="M537.46,236.66s.07.06,0,.09c-2.24,1.26-3.2,3.62-3.78,6a1.91,1.91,0,0,1,2.77-.89c.07,0,0,.14-.05.13a2.12,2.12,0,0,0-2.22,1,9.86,9.86,0,0,0-.87,2c-.09.22-.48.16-.43-.1a.43.43,0,0,0,0-.05C532.47,241.91,534.26,237.38,537.46,236.66Z" style="fill:#263238"></path><path d="M535.39,245.73a.88.88,0,1,1-.75-1A.88.88,0,0,1,535.39,245.73Z" style="fill:#fff"></path><path d="M508,216.68a14.53,14.53,0,0,0,1.43,5.95,15.19,15.19,0,0,0,3.69,5c.37.37.82.64,1.22,1l.63.46c.22.14.45.27.67.39.46.25.91.52,1.37.75l1.44.57.72.27.75.2,1.49.38c1,.16,2,.26,3,.35-1-.3-2-.49-2.93-.79l-1.42-.5-.7-.25c-.23-.09-.46-.21-.68-.32l-1.35-.63c-.43-.24-.84-.52-1.27-.77l-.63-.39-.59-.45a11.28,11.28,0,0,1-1.14-.93,17.16,17.16,0,0,1-3.68-4.61,17.59,17.59,0,0,1-1.24-2.72A17.93,17.93,0,0,1,508,216.68Z" style="fill:#263238"></path><rect x="510.29" y="296.62" width="19.56" height="27.22" transform="translate(-45.85 94.7) rotate(-9.97)" style="fill:#fff"></rect><path d="M532.21,322l-19.52,3.44-4.76-27.07L527.45,295Zm-19.31,3.13,19-3.34-4.67-26.55-19,3.34Z" style="fill:#263238"></path><rect x="512.37" y="298.74" width="15.4" height="22.97" transform="translate(-45.85 94.7) rotate(-9.97)" style="fill:#1C5D65"></rect><rect x="504.43" y="299.4" width="19.56" height="27.22" transform="translate(-87.71 304.03) rotate(-30.48)" style="fill:#fff"></rect><path d="M529.72,319.82l-17.08,10.05L498.7,306.19l17.08-10.05Zm-17,9.7,16.63-9.79-13.67-23.24-16.63,9.79Z" style="fill:#263238"></path><rect x="506.51" y="301.52" width="15.4" height="22.97" transform="translate(-87.71 304.03) rotate(-30.48)" style="fill:#455a64"></rect><rect x="500.21" y="303.95" width="19.56" height="27.22" transform="translate(-81.82 214.12) rotate(-21.99)" style="fill:#fff"></rect><path d="M524.32,326.59,505.94,334l-10.29-25.48L514,301.11Zm-18.23,7.08L524,326.45l-10.1-25L496,308.68Z" style="fill:#263238"></path><rect x="502.28" y="306.08" width="15.4" height="22.97" transform="translate(-81.82 214.11) rotate(-21.99)" style="fill:#c7c7c7"></rect><path d="M612.39,335.79c-6.62,5.81-19.43,6.16-54.31,4.54-4.83-.22-12.42-34.71-7.25-34.74,6.51,0,31.77,1.25,33.61,1.58C599.92,309.93,616.88,331.85,612.39,335.79Z" style="fill:#f7a9a0"></path><path d="M564.73,308.35s-12.92-5-20.51-5.48c-10.17-.69-19.23,2.91-22.94,4.65-7.74,3.62-23.94,17.74-20.69,23.11,2.94,4.87,18.78-10.4,18.78-10.4s-18.71,12.9-14.09,18.11,22-13.56,22-13.56-18.93,13.69-13.31,18.3c4.24,3.49,20.93-12.62,20.93-12.62s-16.19,11.88-12,15.65c4.65,4.18,21-9.73,21-9.73,12.31,7.8,21.37,6.48,27.69,4.77C573.13,340.73,564.73,308.35,564.73,308.35Z" style="fill:#f7a9a0"></path><path d="M525.55,315.36c-2.25,1.43-4.54,2.87-6.66,4.5s-4.18,3.34-6.13,5.16a45.42,45.42,0,0,0-6.94,7.81c3.93-4.81,11.42-10.77,13.54-12.4s4.14-3.36,6.26-5C525.67,315.4,525.61,315.32,525.55,315.36Z" style="fill:#263238"></path><path d="M531.58,322.9c-2.8,2-5.65,3.8-8.36,5.88s-5.07,4.27-7.62,6.52c-.2.18,0,.22.16.06,2.64-2.15,5.24-3.93,7.9-6.05s5.25-4.34,8-6.35C531.67,322.93,531.62,322.87,531.58,322.9Z" style="fill:#263238"></path><path d="M537.92,328.44a76,76,0,0,0-12.09,10c-.19.18,0,.22.22,0,4-3.39,7-6.07,12-9.86C538.09,328.53,538,328.38,537.92,328.44Z" style="fill:#263238"></path><path d="M502.07,324.09a16,16,0,0,0-1.47,3.79,3.87,3.87,0,0,0,0,1.88,1.88,1.88,0,0,0,1.12,1.17,3,3,0,0,0,1.77,0,9.4,9.4,0,0,0,1.85-.63,30.56,30.56,0,0,0,3.54-1.94l.59.75a23.46,23.46,0,0,0-3.37,3.87,9.66,9.66,0,0,0-1.14,2.27,3.7,3.7,0,0,0,0,2.52,3.62,3.62,0,0,1-.35-2.61,8.21,8.21,0,0,1,1-2.51,19,19,0,0,1,3.27-4.24l.59.76a25.1,25.1,0,0,1-3.67,2,10,10,0,0,1-2.05.66,3.94,3.94,0,0,1-2.29-.17,2.56,2.56,0,0,1-1.49-1.8,4.45,4.45,0,0,1,.19-2.19A12.48,12.48,0,0,1,502.07,324.09Z" style="fill:#263238"></path><path d="M574.67,306.52a70.86,70.86,0,0,1,8.11.33,40.05,40.05,0,0,1,4,.57,16.35,16.35,0,0,1,3.95,1.25A38.61,38.61,0,0,1,597.7,313a33.92,33.92,0,0,1,5.88,5.6,39.94,39.94,0,0,0-3.08-2.6c-1.06-.83-2.14-1.63-3.25-2.37a51.5,51.5,0,0,0-6.9-4,15.57,15.57,0,0,0-3.73-1.24c-1.29-.3-2.62-.5-3.94-.73s-2.66-.39-4-.56Z" style="fill:#263238"></path></g><g id="freepik--character-1--inject-134"><path d="M123.57,420s41.65,19.26,76.53,12.32c16.8-3.34,21.79-22.85,17.42-29.57S197,386.76,188.35,381a11.68,11.68,0,0,1-3.91-5.35H152.82s-6.9,7.84-3.41,13.94a2,2,0,0,0,.2.3l-11.1-2.35Z" style="fill:#ad6359"></path><path d="M149.41,389.55c1.74,1.92,27.62,17.36,27.62,17.36s18.3-12.3,34.59-10.85c0,0-22.55-15.18-23.8-16.09-1.73-1.26-2.48-4.36-2.48-4.36H152.82S144.14,383.73,149.41,389.55Z" style="fill:#455a64"></path><path d="M203.81,391.66a48.15,48.15,0,0,0-23.92,6.84,53.31,53.31,0,0,0-5.91,4.22c-.08.07,0,.2.08.14a55.87,55.87,0,0,1,10.86-6.14,60.2,60.2,0,0,1,11.79-3.7,56.73,56.73,0,0,1,7.1-1A.17.17,0,0,0,203.81,391.66Z" style="fill:#263238"></path><path d="M84.53,432c-.12,2,5.62,2.47,8,1.13A54.52,54.52,0,0,0,98,428.54c5.64-5.18,13.45-12.76,13.45-12.76l30.93,10.3,5-36.7s-16.13-3.95-16.93-4.25l-6-2.24-.37-.13c-8.93-3.25-16.33-5.7-17.07-5.15C105,379.06,84.64,430,84.53,432Z" style="fill:#ad6359"></path><path d="M131.24,385.43l-12.36,32.85-7.48-2.5s-7.8,7.57-13.45,12.76a53.1,53.1,0,0,1-5.43,4.63c-2.37,1.34-8.11.87-8-1.13S105,379.06,107,377.6c.74-.54,8.14,1.91,17.07,5.15l.36.14,6,2.24Z" style="fill:#ebebeb"></path><path d="M83.39,432.76c.14-2.08,21.71-54.51,23.79-56,.79-.57,9.2,2,17.84,6.36l-13.94,33.79S94.1,432.65,91.64,434,83.25,434.85,83.39,432.76Z" style="fill:#1C5D65"></path><path d="M85.8,432.87c3.83-8.7,18.46-44.15,21.58-53,0-.08,0-.1,0,0-4,8.55-18.33,44.12-21.68,53C85.58,433,85.72,433.06,85.8,432.87Z" style="fill:#263238"></path><path d="M94.92,431.43a7.62,7.62,0,0,0,0-6.14,7.39,7.39,0,0,0-3.88-3.9c-.06,0-.1.08,0,.11a8.82,8.82,0,0,1,3.81,9.88A.06.06,0,1,0,94.92,431.43Z" style="fill:#263238"></path><path d="M109.06,419.32c1.5-3.5,1.94-8.09,0-11.46-.08-.13-.26,0-.25.11a52.71,52.71,0,0,1-.16,11.23A.24.24,0,0,0,109.06,419.32Z" style="fill:#263238"></path><path d="M106.89,421.6c1.49-3.5,1.93-8.09,0-11.46-.07-.13-.26,0-.25.11a52.71,52.71,0,0,1-.16,11.23A.24.24,0,0,0,106.89,421.6Z" style="fill:#263238"></path><path d="M104.71,423.88c1.5-3.5,1.93-8.09,0-11.46-.08-.13-.26,0-.25.11a52.71,52.71,0,0,1-.16,11.23A.24.24,0,0,0,104.71,423.88Z" style="fill:#263238"></path><path d="M102.54,426.16c1.49-3.5,1.93-8.09-.05-11.46-.08-.13-.26,0-.25.11a52.71,52.71,0,0,1-.16,11.23A.24.24,0,0,0,102.54,426.16Z" style="fill:#263238"></path><path d="M114.81,385.5c1.61-3.95-4.52-6.46-6.14-2.51S113.2,389.46,114.81,385.5Z" style="fill:#fff"></path><path d="M116.89,427c2.21-1.17,1.69-4,.61-5.74a20,20,0,0,0-7.69-6.9.1.1,0,0,0-.14.07c-.28,0-.62.18-.55.52.71,3.22,1.06,6.74,2.73,9.65C112.82,426.27,114.8,428.09,116.89,427Zm-5.7-7.39c-.39-1.58-.69-3.16-1.13-4.72a59.06,59.06,0,0,1,4.39,4.13,21.18,21.18,0,0,1,1.85,2.26c.85,1.24,2.37,5.9-1.61,4.68C112.51,425.26,111.64,421.46,111.19,419.59Z" style="fill:#263238"></path><path d="M112.11,405.07c-1.74,2.87-2.16,6.38-2.93,9.59-.08.33.25.55.53.52,0,.06.07.11.14.08a19.94,19.94,0,0,0,7.83-6.74c1.12-1.7,1.7-4.53-.48-5.75S113.12,403.39,112.11,405.07Zm2.87-1.3c4-1.14,2.38,3.49,1.5,4.71a20,20,0,0,1-1.89,2.22,58.82,58.82,0,0,1-4.48,4c.47-1.55.81-3.12,1.23-4.69C111.84,408.18,112.78,404.39,115,403.77Z" style="fill:#263238"></path><path d="M62,440c-.12,2,5.62,2.47,8,1.13a55.11,55.11,0,0,0,5.42-4.63c5.65-5.18,13.45-12.76,13.45-12.76L119.76,434l15.45-30.29s-14-5.63-27.33-10.65c-2-.77-4.06-1.52-6-2.24l-.36-.14c-8.93-3.24-16.33-5.69-17.07-5.14C82.41,387,62.08,438,62,440Z" style="fill:#ad6359"></path><path d="M108.68,393.37,96.32,426.21l-7.48-2.49S81,431.29,75.38,436.48A53.35,53.35,0,0,1,70,441.11c-2.36,1.34-8.1.87-8-1.13s20.44-53,22.45-54.44c.74-.54,8.13,1.91,17.07,5.15l.36.14c2,.72,4,1.47,6,2.24Z" style="fill:#ebebeb"></path><path d="M60.83,440.7c.14-2.08,21.7-54.52,23.79-56,.79-.56,9.2,2,17.84,6.37L88.52,424.86s-17,15.73-19.44,17.1S60.69,442.78,60.83,440.7Z" style="fill:#1C5D65"></path><path d="M63.23,440.81c3.84-8.7,18.47-44.15,21.59-53.05,0-.07,0-.09,0,0-4,8.54-18.33,44.11-21.68,53C63,440.94,63.15,441,63.23,440.81Z" style="fill:#263238"></path><path d="M72.35,439.37a7.62,7.62,0,0,0,0-6.14,7.38,7.38,0,0,0-3.89-3.9s-.09.08,0,.11a8.81,8.81,0,0,1,3.8,9.88C72.22,439.39,72.32,439.44,72.35,439.37Z" style="fill:#263238"></path><path d="M86.5,427.25c1.5-3.49,1.93-8.08,0-11.45-.08-.13-.27,0-.25.1A52.81,52.81,0,0,1,86,427.14.24.24,0,0,0,86.5,427.25Z" style="fill:#263238"></path><path d="M84.33,429.53c1.49-3.49,1.93-8.08,0-11.45-.08-.13-.26,0-.25.1a52.81,52.81,0,0,1-.16,11.24A.24.24,0,0,0,84.33,429.53Z" style="fill:#263238"></path><path d="M82.15,431.81c1.5-3.49,1.93-8.08-.05-11.45-.07-.13-.26,0-.25.1a52.81,52.81,0,0,1-.16,11.24A.24.24,0,0,0,82.15,431.81Z" style="fill:#263238"></path><path d="M80,434.09c1.5-3.49,1.94-8.08,0-11.45-.08-.13-.26,0-.25.1A52.81,52.81,0,0,1,79.52,434,.23.23,0,0,0,80,434.09Z" style="fill:#263238"></path><path d="M92.25,393.44c1.61-4-4.53-6.47-6.14-2.51S90.63,397.4,92.25,393.44Z" style="fill:#fff"></path><path d="M94.33,434.92c2.2-1.18,1.68-4,.6-5.74a19.93,19.93,0,0,0-7.68-6.9.1.1,0,0,0-.14.07.47.47,0,0,0-.55.52c.7,3.21,1.06,6.74,2.72,9.64C90.26,434.21,92.24,436,94.33,434.92Zm-5.71-7.4c-.38-1.57-.68-3.15-1.13-4.71,1.5,1.35,3,2.63,4.4,4.12a22.35,22.35,0,0,1,1.85,2.27c.84,1.24,2.36,5.9-1.61,4.68C89.94,433.2,89.08,429.4,88.62,427.52Z" style="fill:#263238"></path><path d="M89.54,413c-1.73,2.87-2.16,6.39-2.93,9.59-.08.34.25.55.54.53a.09.09,0,0,0,.14.07,20,20,0,0,0,7.83-6.73c1.12-1.7,1.7-4.53-.49-5.75S90.55,411.33,89.54,413Zm2.88-1.3c4-1.14,2.38,3.49,1.5,4.72A22.16,22.16,0,0,1,92,418.64a59.19,59.19,0,0,1-4.49,4c.48-1.55.82-3.13,1.23-4.69C89.27,416.11,90.21,412.33,92.42,411.7Z" style="fill:#263238"></path><path d="M178.76,375.63H128.43s-6.34,15.93-2.85,22S164.67,412,164.67,412L115,395.79,101.83,428c51.32,18.53,73.06,15.45,84.36,11.86,9.66-3.08,18.53-21.19,14-27.82-6.26-9.17-27.57-24.45-27.57-24.45Z" style="fill:#ad6359"></path><path d="M127.38,375.61H179.6l-7,12c9.32,7.22,17.67,14.26,17.67,14.26s-13.34-3.88-33,8.24c0,0-9.27-3.32-18.08-6.29-7.16-2.41-14.06-4.12-15.09-7.35C121.82,389.3,127.38,375.61,127.38,375.61Z" style="fill:#455a64"></path><path d="M147.94,378.9c0-.14-.23-.24-.3-.08-.27.66-.36,1.39-.57,2.07s-.43,1.48-.68,2.2A8.7,8.7,0,0,1,144,386.8a9.5,9.5,0,0,1-4,1.89,25.79,25.79,0,0,1-4.69.7.08.08,0,0,0,0,.16,12.43,12.43,0,0,0,2.44.19,16.19,16.19,0,0,0,2.61-.12,8.9,8.9,0,0,0,4.43-1.75,8.16,8.16,0,0,0,2.54-4,12.7,12.7,0,0,0,.53-2.43A12.42,12.42,0,0,0,147.94,378.9Z" style="fill:#263238"></path><path d="M178.65,377.21c-.46.71-1,1.41-1.46,2.11s-.94,1.5-1.4,2.26c-.8,1.32-1.52,2.74-2.4,4A3.8,3.8,0,0,1,172,386.9c-.54.25-1.4.33-1.69-.32a2.55,2.55,0,0,1,.24-1.79c.3-.78.64-1.56,1-2.33.73-1.78,1.4-3.57,2.05-5.38,0-.09-.1-.13-.14-.05a47.52,47.52,0,0,0-2.92,5.33c-.6,1.29-1.75,3.11-1.17,4.58s2.52,1.35,3.62.52a11.17,11.17,0,0,0,2.72-4c.54-1,1.09-2,1.61-3.07s.94-2.13,1.44-3.17A0,0,0,0,0,178.65,377.21Z" style="fill:#263238"></path><path d="M181.12,397.31a35.82,35.82,0,0,0-14.4,2.43,72.47,72.47,0,0,0-13.15,6.51c-.09.05,0,.18.08.13,4.4-2.06,8.7-4.29,13.28-5.94a49.79,49.79,0,0,1,14.19-3.05S181.17,397.32,181.12,397.31Z" style="fill:#263238"></path><path d="M172.64,387.64A221.64,221.64,0,0,1,192.2,403c2.71,2.38,5.56,4.74,7.61,7.75a12.79,12.79,0,0,1,2,4.49,12.24,12.24,0,0,1-.27,5.61,36.25,36.25,0,0,1-5.8,11.75c-.07.09-.22,0-.15-.09a33.7,33.7,0,0,0,4.9-10.26,14.55,14.55,0,0,0,.69-6.17,11.72,11.72,0,0,0-1.85-4.56c-1.93-2.93-4.73-5.27-7.32-7.59-3-2.65-6-5.24-9.06-7.72-3.48-2.78-7-5.52-10.57-8.17C172.12,387.88,172.37,387.46,172.64,387.64Z" style="fill:#263238"></path><path d="M171.21,414.85c-2.2-1-4.47-1.75-6.71-2.61l-2.44-.89c1.36.31,2.73.69,4.12.89a.11.11,0,0,0,0-.21,26.82,26.82,0,0,0-4.13-1q-1-.18-1.92-.33l-2.4-.85c-4.54-1.61-9.11-3.16-13.66-4.74q-13.69-4.77-27.45-9.37c-2.55-.86-5.11-1.7-7.67-2.55s-5.21-1.61-7.8-2.47c-.07,0-.1.09,0,.12,2.31.83,4.57,1.77,6.88,2.6l6.71,2.42c4.54,1.64,9.09,3.23,13.64,4.84,9.09,3.2,18.21,6.34,27.32,9.49,2.52.87,5,1.73,7.57,2.55s5.19,1.71,7.82,2.4C171.26,415.15,171.36,414.91,171.21,414.85Z" style="fill:#263238"></path><path d="M163.35,364.47l4.9-.86a13,13,0,0,1,.54-3.79c1.46-4.83,5-9,7.69-13.09,0,0,0,0,0,0a44.64,44.64,0,0,0-5.74,13.53,12.33,12.33,0,0,0-.26,2.93l3.05-.54a17.83,17.83,0,0,1,1.56-8.41c0-.08.16,0,.13.09a16.87,16.87,0,0,0-.58,8.13l26.49-4.66a42.09,42.09,0,0,0-.09-7.18.2.2,0,1,1,.39,0,60.23,60.23,0,0,1,.39,7.08l2.2-.4a46,46,0,0,0-1.92-12.09.11.11,0,0,1,.2-.07,55.94,55.94,0,0,1,2.86,12l18.34-3.22a49.75,49.75,0,0,1-3.56-7.59c-.09-.22.24-.33.33-.11a36.87,36.87,0,0,0,4.29,7.51l2.72-.47a40.72,40.72,0,0,1-5.77-13.56c0-.2.28-.26.33-.07,1.32,5.2,4.54,9.22,7.73,13.22l6.91-1.21c-2.91-3.75-7.54-6.89-8.72-11.62-1.3-5.32,3.49-8.59,4.47-13.34,1.66-8-3-13.08-8.63-17.62-5.17-4.19-5.36-9.77-7.22-15.76-1.36-4.41-3.3-9.23-6.24-12.83-9-11.13-22.35-7.59-22.34-7.41a17.67,17.67,0,0,0-8.53,3.77s0,0,0,0c-.17.13-.32.28-.49.43a22.65,22.65,0,0,0-6.08,9.15v0a33.59,33.59,0,0,0-1.1,3.43c-.54,2.09-.37,4.87-.64,8.13a.59.59,0,0,1,0,.19,23.58,23.58,0,0,1-7.42,15.58c-6.71,6.55-3.64,15.22,3.37,23.38,3,3.46,3.35,5.9,2.59,8.14,0,0,0,0,0,0-.12.3-.23.57-.36.86-1.17,2.51-3.54,4.88-5,8.28A18.26,18.26,0,0,0,163.35,364.47Z" style="fill:#263238"></path><path d="M199.73,273.18a23,23,0,0,1,13.18,12.08c2.08,4.47,2.83,9.52,5.38,13.77,2.41,4,6.15,6.8,9.28,10.13,4.14,4.41,7.11,10.08,4.79,16-1.44,3.7-5.12,7.66-4.41,12,.84,5.1,6,9.46,9,13.38.14.19-.13.45-.3.27-3.9-4.36-10.49-9.9-9.22-16.45.58-3,2.3-5.45,3.59-8.11,2.49-5.16,1.27-10.19-2.28-14.69-4.81-6.1-10.65-9.66-13.36-17.4-1.55-4.42-2.53-9-5.36-12.87a23.29,23.29,0,0,0-10.34-7.85C199.46,273.43,199.56,273.11,199.73,273.18Z" style="fill:#263238"></path><path d="M166.15,352.91c1.72-3,4-5.28,2.45-9.23-1.07-2.74-3.37-4.91-5-7.24-4.17-5.83-7-13.48-4.3-20.4,1.53-3.9,4.73-5.22,7.22-8.25,3-3.68,3.72-8.83,4.31-13.56.89-7.09,2.11-15.21,9.3-17.75.06,0,.09.08,0,.1-9.09,3.84-7.79,15.46-9.61,23.86a18.66,18.66,0,0,1-3.46,7.87c-2.88,3.5-6.67,5.05-7.82,10.05-1.07,4.69.13,9.57,2.35,13.83,1.91,3.7,5,6.59,6.89,10.28a8.07,8.07,0,0,1,.61,6.86c-.76,1.78-2.23,3.09-3.05,4.83a13,13,0,0,0-1,7.51c0,.27-.35.28-.39,0A13.16,13.16,0,0,1,166.15,352.91Z" style="fill:#263238"></path><path d="M177.12,326.23c2.48,8.74,16.46,42.77,23.7,47.51,7.08,4.64,37,2.48,44.25.21,3-.93-1.64-24.49-4.94-25-3.6-.57-26.27,3.78-28.52,2.68s-16.13-18.92-25.24-28.08C180.9,318.07,175.72,321.32,177.12,326.23Z" style="fill:#ad6359"></path><path d="M239.9,375c3.17-.4,21.36-2.19,25.16-4s14.37-7.62,13.32-10.67-4.29-1.58-4.29-1.58,4.51-3.42,2.74-6.15c-1.42-2.19-6.08-.36-6.08-.36s4.74-4,2.64-6.49c-1.93-2.27-6.45,1-6.45,1s3.63-3.76,1.36-5.58c-2.73-2.2-9,4.3-13.36,5.93-1,.37-20.52,6.08-20.52,6.08Z" style="fill:#ad6359"></path><path d="M266.92,346.5c-5.2,4.39-7.48,6.05-13.84,7.59-.13,0-.11.22,0,.2,6.37-.94,9.22-2.72,14.06-7.58C267.4,346.48,267.16,346.3,266.92,346.5Z" style="fill:#263238"></path><path d="M270.69,352.27c-5.24,4.53-8.32,5.79-14.87,7.88-.09,0,0,.19.05.17,6.59-1.52,10.36-2.7,15-7.91C271.09,352.17,270.93,352.07,270.69,352.27Z" style="fill:#263238"></path><path d="M273.77,358.92c-5.39,4-8.7,5.72-15.32,6.94a.12.12,0,0,0,0,.24c6.87-.58,11-2.68,15.39-7C274.17,358.8,274.11,358.66,273.77,358.92Z" style="fill:#263238"></path><path d="M229.16,350.21s7-4.59,10.13-6.63,11.21-9.05,14.25-8c3.41,1.2-1.59,9.54-7.16,13.23,0,0,3.14,10.51-2,14.31S229.16,350.21,229.16,350.21Z" style="fill:#ad6359"></path><path d="M245.94,349.39c1.37,4.05,1.55,9.69-1.14,13a.1.1,0,1,0,.14.13c3.37-3.15,3.22-9.67,1.78-13.21C246.44,348.62,245.59,348.35,245.94,349.39Z" style="fill:#263238"></path><path d="M231.37,349l3.59,28.3a16,16,0,0,1-8.17,2.77c-4.56.12-21.2-2.72-26.44-5.47s-19-32.26-23-45.39,4.62-11.19,11.81-3.42c6.23,6.73,22.34,24,22.85,24.61s9.35-2.18,12.82-2.56A13.36,13.36,0,0,1,231.37,349Z" style="fill:#1C5D65"></path><polygon points="208.88 355.46 210.11 358.6 206.9 356.87 204.33 358.72 205.03 355.86 202.18 354.32 205.44 354.18 206.57 349.59 208.32 354.05 211.01 353.93 208.88 355.46" style="fill:#fff"></polygon><polygon points="223.44 370.03 223.77 372.89 221.5 370.77 218.98 371.73 220.18 369.52 218.17 367.64 220.89 368.23 222.49 365.82 223.29 368.75 225.53 369.24 223.44 370.03" style="fill:#fff"></polygon><polygon points="193.8 346.77 191.73 346.62 193.25 345.38 192.54 343.25 194.61 344.52 196.22 343.34 195.43 345.2 196.93 346.67 194.74 346.84 194.09 348.36 193.8 346.77" style="fill:#fff"></polygon><polygon points="225.75 356.07 226.39 358.06 224.67 357.11 222.97 358.56 223.37 356.17 221.67 355.12 223.69 355.16 224.48 353.22 225.46 355.18 227.12 355.21 225.75 356.07" style="fill:#fff"></polygon><path d="M195.18,368.35c-6.27-10-14.81-29.22-17.87-39.12-2.3-7.41-.52-10,2.75-9.48Z" style="opacity:0.1"></path><path d="M126.52,375.93c0-.07,60.94,6.61,60.94,6.61.17-.21,2-46-1.61-59.22-1.23-4.49-7.61-8.75-15.15-5C150.23,328.58,126.55,376,126.52,375.93Z" style="fill:#1C5D65"></path><polygon points="170.47 360.24 169.98 363.58 168.05 360.49 164.9 360.8 166.93 358.67 165.22 355.92 168.13 357.42 171.39 354 170.69 358.74 173.08 359.97 170.47 360.24" style="fill:#fff"></polygon><polygon points="167.25 334.16 168.48 337.3 165.27 335.57 162.7 337.42 163.4 334.56 160.55 333.02 163.81 332.88 164.94 328.29 166.69 332.75 169.38 332.63 167.25 334.16" style="fill:#fff"></polygon><polygon points="176.48 373.29 178.56 375.27 175.46 375.09 174.13 377.43 173.65 374.97 170.9 374.81 173.37 373.53 173.07 370.65 175.55 372.39 177.58 371.34 176.48 373.29" style="fill:#fff"></polygon><polygon points="148.2 353.91 146.03 355.79 146.5 352.73 144.29 351.19 146.78 350.93 147.2 348.21 148.25 350.79 151.15 350.75 149.18 353.06 150.04 355.18 148.2 353.91" style="fill:#fff"></polygon><polygon points="182.3 345.92 182.63 348.78 180.37 346.66 177.84 347.62 179.04 345.42 177.03 343.53 179.75 344.12 181.36 341.71 182.15 344.64 184.39 345.13 182.3 345.92" style="fill:#fff"></polygon><polygon points="181.39 365.06 179.31 364.91 180.83 363.67 180.12 361.54 182.19 362.81 183.8 361.63 183.01 363.49 184.51 364.96 182.32 365.13 181.67 366.65 181.39 365.06" style="fill:#fff"></polygon><polygon points="145.92 373.44 144.53 375 144.48 373.03 142.37 372.3 144.63 371.44 144.68 369.44 145.67 371.2 147.75 370.91 146.54 372.75 147.36 374.19 145.92 373.44" style="fill:#fff"></polygon><path d="M177.34,316.87c-4.81-.05-5.19,5.3-4.09,9.78s3.59,8,6.78,8.13,3.22-4.79,3.22-4.79,1.84,4,3.74,3.36S184.83,316.94,177.34,316.87Z" style="fill:#fff"></path><path d="M175.11,318.35c-.12,1.16,2.61,9.89,7.6,11.34,1.62.47,4.58-8.28,4.58-8.28l.37-.6,5.12-8.35-9.51-11.88S175.16,317.86,175.11,318.35Z" style="fill:#ad6359"></path><path d="M192.78,312.47l-5.12,8.34-.37.6s-.54,1.58-1.27,3.37c-6.35-3.29-7.69-9.36-7.84-13.29,2.31-5,5.09-10.91,5.09-10.91Z" style="fill:#263238"></path><path d="M214.85,305.89c-5.78,20.17-18.52,19-22.86,17.74-4-1.14-17.25-5.51-13.58-26.17s14.87-24.35,24-22.23S220.63,285.72,214.85,305.89Z" style="fill:#ad6359"></path><path d="M212.21,302.57a12.05,12.05,0,0,1-1.23-.77,2.29,2.29,0,0,1-1.11-1,.75.75,0,0,1,.32-.85,1.83,1.83,0,0,1,1.86.22,2.65,2.65,0,0,1,1.27,1.48A.8.8,0,0,1,212.21,302.57Z" style="fill:#263238"></path><path d="M198.58,298.33a13.87,13.87,0,0,0,1.44.21,2.4,2.4,0,0,0,1.5-.07.75.75,0,0,0,.31-.86,1.84,1.84,0,0,0-1.57-1,2.66,2.66,0,0,0-1.93.32A.8.8,0,0,0,198.58,298.33Z" style="fill:#263238"></path><path d="M199.51,301.52c-2.12-.9-3.77,3.41-1.8,4.24S201.29,302.27,199.51,301.52Z" style="fill:#263238"></path><path d="M198.58,301.42c-.47.1-1,.39-1.48.26s-.77-.75-.94-1.31c0-.06-.07,0-.1,0a1.69,1.69,0,0,0,.51,2.25c.76.42,1.62-.09,2.15-.84C198.81,301.66,198.77,301.38,198.58,301.42Z" style="fill:#263238"></path><path d="M209.32,304.72c2.2.68.69,5-1.35,4.41S207.47,304.16,209.32,304.72Z" style="fill:#263238"></path><path d="M210.12,305.33c.27.35.46.88.87,1.05s1-.15,1.44-.5c0,0,.07,0,0,.07-.27.85-.84,1.62-1.7,1.5s-1.07-1-1-1.9C209.82,305.38,210,305.18,210.12,305.33Z" style="fill:#263238"></path><path d="M195.74,313.56c.18.44.31,1,.77,1.25a3.88,3.88,0,0,0,1.55.28,0,0,0,0,1,0,.09,2,2,0,0,1-2,0,1.52,1.52,0,0,1-.52-1.61C195.6,313.48,195.71,313.49,195.74,313.56Z" style="fill:#263238"></path><path d="M203.13,310.78s-.46,2.1-.81,3c0,.09-.28.05-.6-.05h0a4.78,4.78,0,0,1-3.74-3.28c0-.12.12-.17.18-.08a7.23,7.23,0,0,0,3.67,2.68c.16-.24.69-3.66.82-3.59.59.34,1.6,1,2,1.28.33-1.36,1.08-5.27,1.68-7.74,0-.16.29-.12.27,0a67.55,67.55,0,0,1-1.28,8.87C205.2,312.16,203.45,311.08,203.13,310.78Z" style="fill:#263238"></path><path d="M201.91,313a5.9,5.9,0,0,1-2.71,1.21,2.6,2.6,0,0,1-1.58-.28c-1.05-.57-.83-1.61-.41-2.44a6.53,6.53,0,0,1,.83-1.23A7.63,7.63,0,0,0,201.91,313Z" style="fill:#263238"></path><path d="M199.2,314.23a2.6,2.6,0,0,1-1.58-.28c-1.05-.57-.83-1.61-.41-2.44A2.71,2.71,0,0,1,199.2,314.23Z" style="fill:#ff9cbd"></path><path d="M177.7,302.16a8.91,8.91,0,0,0,7-5.28,22.65,22.65,0,0,0,11.24-4.14c-.28.37-2.31,3.1-3.38,4.46,13.48,2.1,20.85-6.52,20.85-6.52A24.51,24.51,0,0,1,216,301s2.86-8,.73-14.82c-2.6-8.35-9.69-9.5-9.69-9.5a18.39,18.39,0,0,0-19.35-.72C176.32,282.25,177.7,302.16,177.7,302.16Z" style="fill:#263238"></path><path d="M202.9,298.49a24,24,0,0,1-7.33.13s0,0,0,0a20.48,20.48,0,0,0,11.27-2.48,19.78,19.78,0,0,0,4.09-3,14,14,0,0,0,3.4-4.39.11.11,0,0,1,.19.09,16.78,16.78,0,0,1-2.78,4.8,14.93,14.93,0,0,1-4.3,3.33,17,17,0,0,1-4.55,1.52Z" style="fill:#263238"></path><path d="M181.17,299.93s-1.94-7.75-5.29-7.29-3.54,10.56-.75,13a3.54,3.54,0,0,0,5.12-.08Z" style="fill:#ad6359"></path><path d="M175.9,295.53c-.05,0-.09.05-.05.08,1.93,1.81,2.32,4.38,2.32,6.9a2,2,0,0,0-2.55-1.55c-.07,0-.05.14,0,.15a2.19,2.19,0,0,1,2,1.57,11.06,11.06,0,0,1,.38,2.23c0,.24.44.27.45,0v-.06C179.62,302,178.91,297,175.9,295.53Z" style="fill:#263238"></path><rect x="210.12" y="369.88" width="19.56" height="27.22" transform="translate(257.8 -56.95) rotate(34.75)" style="fill:#fff"></rect><path d="M220.21,400.43l-16.28-11.3,15.66-22.58,16.29,11.3Zm-15.92-11.36,15.86,11,15.36-22.15-15.85-11Z" style="fill:#263238"></path><rect x="212.2" y="372.01" width="15.4" height="22.97" transform="translate(257.8 -56.95) rotate(34.75)" style="fill:#1C5D65"></rect><rect x="205.36" y="368.82" width="19.56" height="27.22" transform="translate(100.69 -41.17) rotate(14.24)" style="fill:#fff"></rect><path d="M221.37,398.19l-19.21-4.88,6.76-26.63,19.21,4.87Zm-18.89-5.07,18.7,4.75,6.63-26.13L209.11,367Z" style="fill:#263238"></path><rect x="207.44" y="370.95" width="15.4" height="22.97" transform="translate(100.69 -41.17) rotate(14.24)" style="fill:#455a64"></rect><path d="M164,323.47c-13.82,12.45-36.89,45.81-34,53.39,5.28,14,44.6,21.66,52.26,23.64,3.26.84,6.38-29.64,2.91-30.61-3-.85-23.78-1.76-24.47-4.36-.28-1.08,6.45-16.42,11-33.93C175,318.19,168.06,319.79,164,323.47Z" style="fill:#ad6359"></path><path d="M183.48,369.72s25.42,2.59,32.57,7c4.11,2.55,20.57,14.69,17.66,18.71-2.65,3.64-15.32-8.78-15.32-8.78s13.9,11.4,9.91,15.2-16.43-12.13-16.43-12.13,14,12,9.28,15.3c-3.58,2.47-15.66-11.33-15.66-11.33s12,10.43,8.4,13.13c-3.94,3-15.9-9.06-15.9-9.06-10.22,5.33-20.79,3.86-25.48-2.34C171.76,394.46,183.48,369.72,183.48,369.72Z" style="fill:#ad6359"></path><path d="M213.84,382.44c1.68,1.28,3.39,2.57,4.95,4s3.08,2.91,4.5,4.47a36.83,36.83,0,0,1,5,6.61c-2.78-4.05-8.29-9.24-9.85-10.66s-3-2.93-4.6-4.35A0,0,0,1,1,213.84,382.44Z" style="fill:#263238"></path><path d="M208.59,388c2.08,1.73,4.2,3.37,6.2,5.19s3.72,3.7,5.58,5.65c.14.15,0,.17-.14,0-1.93-1.87-3.86-3.44-5.82-5.29s-3.85-3.76-5.86-5.53A0,0,0,0,1,208.59,388Z" style="fill:#263238"></path><path d="M203.23,391.93a60,60,0,0,1,8.87,8.66c.14.15,0,.17-.18,0-2.89-2.93-5.14-5.25-8.77-8.56C203.09,392,203.16,391.88,203.23,391.93Z" style="fill:#263238"></path><path d="M186.63,401a31.86,31.86,0,0,0,5.81-1.19,24.08,24.08,0,0,0,2.78-1,21.54,21.54,0,0,0,2.63-1.32l.19-.11.16.16c1.61,1.55,3.27,3.07,5,4.47a33.67,33.67,0,0,0,5.53,3.72,11.26,11.26,0,0,0,3.06,1.11c1,.19,2.23,0,2.4-1a3,3,0,0,0-.16-1.49,7.83,7.83,0,0,0-.63-1.5,15.4,15.4,0,0,0-1.88-2.73l.34-.31a33.25,33.25,0,0,0,3.1,2.82,19.06,19.06,0,0,0,3.55,2.26,17.2,17.2,0,0,1-3.71-2,26.5,26.5,0,0,1-3.27-2.72l.33-.32a16.33,16.33,0,0,1,2,2.76,9.57,9.57,0,0,1,.73,1.59,3.56,3.56,0,0,1,.18,1.82,1.84,1.84,0,0,1-1.31,1.42,4.22,4.22,0,0,1-1.83.09,12.27,12.27,0,0,1-3.28-1.14,29.92,29.92,0,0,1-5.63-3.84,60.53,60.53,0,0,1-5-4.61l.35.05a23.36,23.36,0,0,1-2.74,1.26,26.32,26.32,0,0,1-2.86.9A28.92,28.92,0,0,1,186.63,401Z" style="fill:#263238"></path><path d="M185.11,369.89l-13.22,29.88a22.65,22.65,0,0,1-11.51-.29c-5.89-1.84-29.95-13.72-32-22.91S153.27,332.66,162.7,324s12-2,8.71,10.41c-3.23,12.06-9.58,30.09-9.32,30.52s14.18,1,18.24,2.16S185.11,369.89,185.11,369.89Z" style="fill:#1C5D65"></path><polygon points="167.25 334.16 168.48 337.3 165.27 335.57 162.7 337.42 163.4 334.56 160.55 333.02 163.81 332.88 164.94 328.29 166.69 332.75 169.38 332.63 167.25 334.16" style="fill:#fff"></polygon><polygon points="162.47 391.97 162.26 395.34 160.09 392.42 156.97 393 158.82 390.7 156.89 388.1 159.91 389.36 162.87 385.68 162.57 390.46 165.05 391.49 162.47 391.97" style="fill:#fff"></polygon><polygon points="176.48 373.29 178.56 375.27 175.46 375.09 174.13 377.43 173.65 374.97 170.9 374.81 173.37 373.53 173.07 370.65 175.55 372.39 177.58 371.34 176.48 373.29" style="fill:#fff"></polygon><polygon points="148.2 353.91 146.03 355.79 146.5 352.73 144.29 351.19 146.78 350.93 147.2 348.21 148.25 350.79 151.15 350.75 149.18 353.06 150.04 355.18 148.2 353.91" style="fill:#fff"></polygon><polygon points="145.92 373.44 144.53 375 144.48 373.03 142.37 372.3 144.63 371.44 144.68 369.44 145.67 371.2 147.75 370.91 146.54 372.75 147.36 374.19 145.92 373.44" style="fill:#fff"></polygon><path d="M185.21,369.67a8.62,8.62,0,0,0-2.28-1.9,13.86,13.86,0,0,0-2.93-1.22,37.31,37.31,0,0,0-6.7-1.25,88.36,88.36,0,0,0-14.91-.25c-2.84.17-5.66.58-8.49.77-.1,0-.08.17,0,.17,2.4-.14,4.81-.06,7.21-.12s4.87-.1,7.31-.05a69.67,69.67,0,0,1,14,1.35,14.41,14.41,0,0,1,6.35,2.95C185,370.35,185.46,369.94,185.21,369.67Z" style="fill:#263238"></path><path d="M168.61,347.46c0-.08-.09-.13-.12,0-.79,1.61-1.56,3.23-2.33,4.86.92-3.17,1.8-6.36,2.51-9.58a.07.07,0,0,0-.14,0c-1.41,3.74-2.58,7.57-3.73,11.4q-.86,2.85-1.74,5.69c-.28.91-.53,1.82-.78,2.74-.14.48-.24,1-.34,1.44a3.09,3.09,0,0,0-.17,1.37c0,.08.12.15.19.08a2.2,2.2,0,0,0,.5-.91c.19-.5.39-1,.56-1.51.3-.9.57-1.81.84-2.72.58-2,1.14-4,1.72-6l.16-.55A47.1,47.1,0,0,0,168.61,347.46Z" style="fill:#263238"></path></g><g id="freepik--Dices--inject-134"><rect x="258.01" y="360.22" width="6.93" height="6.93" transform="translate(-148.59 183.46) rotate(-30.56)" style="fill:#c7c7c7"></rect><rect x="264.3" y="357.85" width="2.38" height="6.93" transform="translate(-146.84 185.18) rotate(-30.56)" style="fill:#ebebeb"></rect><path d="M262.05,363.35a.67.67,0,0,1-.24.91.67.67,0,0,1-.67-1.15A.67.67,0,0,1,262.05,363.35Z" style="fill:#263238"></path><path d="M259.18,362.61a.66.66,0,1,1-.91-.23A.66.66,0,0,1,259.18,362.61Z" style="fill:#263238"></path><path d="M265,364.18a.66.66,0,1,1-.91-.23A.67.67,0,0,1,265,364.18Z" style="fill:#263238"></path><path d="M264,359.75c.19.32.26.62.16.68s-.34-.14-.53-.46-.25-.62-.15-.68S263.84,359.44,264,359.75Z" style="fill:#263238"></path><path d="M267.38,362.78c.18.31.25.62.15.68s-.33-.15-.52-.47-.25-.62-.15-.68S267.19,362.46,267.38,362.78Z" style="fill:#263238"></path><rect x="271.58" y="384.95" width="6.93" height="6.93" transform="translate(250.45 -86.89) rotate(32.34)" style="fill:#c7c7c7"></rect><polygon points="278.72 393.53 276.12 393.2 279.83 387.35 282.43 387.68 278.72 393.53" style="fill:#fff"></polygon><path d="M275,385.89a.65.65,0,0,1-.91.2.66.66,0,1,1,.91-.2Z" style="fill:#263238"></path><circle cx="277.95" cy="387.79" r="0.66" style="fill:#263238"></circle><circle cx="275.65" cy="391.43" r="0.66" style="fill:#263238"></circle><path d="M272.65,389.53a.66.66,0,0,1-.92.2.66.66,0,0,1,.71-1.12A.67.67,0,0,1,272.65,389.53Z" style="fill:#263238"></path><path d="M279.94,388.53c-.2.31-.44.51-.54.45s0-.37.18-.68.43-.51.53-.45S280.13,388.22,279.94,388.53Z" style="fill:#263238"></path><path d="M279.47,390.53c-.2.31-.44.51-.54.45s0-.37.18-.68.44-.51.53-.44S279.67,390.22,279.47,390.53Z" style="fill:#263238"></path><path d="M279,392.55c-.2.31-.44.51-.54.44s0-.36.18-.67.43-.51.53-.45S279.19,392.24,279,392.55Z" style="fill:#263238"></path><polygon points="279.83 387.35 282.43 387.68 276.57 383.97 273.97 383.64 279.83 387.35" style="fill:#ebebeb"></polygon><path d="M276,384.3c.31.2.51.44.44.54s-.36,0-.67-.18-.51-.43-.45-.53S275.65,384.11,276,384.3Z" style="fill:#263238"></path><path d="M280.51,386.68c.31.19.51.43.44.53s-.36,0-.67-.17-.51-.44-.45-.54S280.2,386.48,280.51,386.68Z" style="fill:#263238"></path></g><g id="freepik--Cards--inject-134"><polygon points="371.39 381.26 349.12 381.26 351.9 367.56 368.4 367.56 371.39 381.26" style="fill:#fff"></polygon><path d="M371.56,381.33H349l2.84-13.83h16.7Zm-22.28-.13h22l-2.92-13.58H352Z" style="fill:#263238"></path><polygon points="368.84 380.19 351.65 380.19 353.49 368.63 366.84 368.63 368.84 380.19" style="fill:#37474f"></polygon><polygon points="324.42 382.45 302.15 382.45 304.93 368.75 321.44 368.74 324.42 382.45" style="fill:#fff"></polygon><path d="M324.59,382.52H302l2.85-13.84h16.69Zm-22.28-.14h21.95l-2.92-13.57H305Z" style="fill:#263238"></path><polygon points="321.87 381.38 304.69 381.38 306.52 369.82 319.87 369.81 321.87 381.38" style="fill:#1C5D65"></polygon><polygon points="328.59 379.34 306.31 379.34 309.09 365.64 325.6 365.63 328.59 379.34" style="fill:#fff"></polygon><path d="M328.75,379.4h-22.6L309,365.57h16.69Zm-22.28-.13h21.95L325.5,365.7H309.19Z" style="fill:#263238"></path><polygon points="326.03 378.27 308.85 378.27 310.68 366.71 324.03 366.7 326.03 378.27" style="fill:#455a64"></polygon><polygon points="366.49 382.45 344.22 382.45 347 368.75 363.5 368.74 366.49 382.45" style="fill:#fff"></polygon><path d="M366.66,382.52H344.05l2.85-13.84h16.7Zm-22.28-.14h21.95l-2.92-13.57H347.1Z" style="fill:#263238"></path><polygon points="363.94 381.38 346.75 381.38 348.58 369.82 361.94 369.81 363.94 381.38" style="fill:#ebebeb"></polygon><polygon points="359.08 379.34 336.81 379.34 339.59 365.64 356.1 365.63 359.08 379.34" style="fill:#fff"></polygon><path d="M359.25,379.4h-22.6l2.84-13.83h16.7ZM337,379.27h21.95L356,365.7H339.69Z" style="fill:#263238"></path><polygon points="356.53 378.27 339.35 378.27 341.18 366.71 354.53 366.7 356.53 378.27" style="fill:#1C5D65"></polygon></g><g id="freepik--speech-bubble--inject-134"><path d="M315.27,136.67a18,18,0,0,0,3.08-9.95c0-12.59-13.83-22.81-30.89-22.81s-30.87,10.22-30.87,22.81,13.82,22.81,30.87,22.81a37.08,37.08,0,0,0,21.31-6.31l10.64,2.71Z" style="fill:#fff"></path><path d="M315.27,136.67a18.11,18.11,0,0,0,3-9.41,17.72,17.72,0,0,0-2.59-9.45,24.42,24.42,0,0,0-6.77-7.15,31.69,31.69,0,0,0-8.85-4.39,40.81,40.81,0,0,0-9.72-1.84,43.53,43.53,0,0,0-9.88.55,35,35,0,0,0-9.41,3,29,29,0,0,0-8,5.6,20.28,20.28,0,0,0-5.1,8.23,16.49,16.49,0,0,0-.13,9.59,20.21,20.21,0,0,0,5,8.31,29,29,0,0,0,8,5.7,35.58,35.58,0,0,0,9.39,3,40.9,40.9,0,0,0,9.88.67A36.29,36.29,0,0,0,308.63,143l.09-.06.1,0,10.61,2.82-.12.15Zm0,0,4.23,9.21.1.21-.22-.06-10.67-2.59.19,0a36.62,36.62,0,0,1-18.89,6.4,39.78,39.78,0,0,1-19.69-3.64,29.74,29.74,0,0,1-8.26-5.85,21.14,21.14,0,0,1-5.24-8.69,17.3,17.3,0,0,1,.1-10.15,21.18,21.18,0,0,1,5.37-8.6,29.85,29.85,0,0,1,8.33-5.76,35.58,35.58,0,0,1,9.65-3,42.57,42.57,0,0,1,10.08-.51,41.73,41.73,0,0,1,9.89,2,32.13,32.13,0,0,1,9,4.59,24.17,24.17,0,0,1,6.8,7.4,18.07,18.07,0,0,1,2.44,9.68A18.3,18.3,0,0,1,315.27,136.67Z" style="fill:#263238"></path><path d="M276.36,126.72a3.21,3.21,0,1,1-3.2-3.2A3.21,3.21,0,0,1,276.36,126.72Z" style="fill:#263238"></path><path d="M290.67,126.72a3.21,3.21,0,1,1-3.2-3.2A3.21,3.21,0,0,1,290.67,126.72Z" style="fill:#263238"></path><path d="M305,126.72a3.2,3.2,0,1,1-3.2-3.2A3.21,3.21,0,0,1,305,126.72Z" style="fill:#263238"></path></g></svg>